<svg xmlns="http://www.w3.org/2000/svg" viewBox="0 0 179.3 49.1"><path d="M32.5 35.1h-7.9L14.4 23.4H8.1v11.7H1.5V0C7 0 12.6.1 18.1.1c8.3 0 12.6 5.5 12.6 11.6 0 4.8-2.2 9.7-8.9 11l10.6 12v.4zM8.1 6.2v11.2h10.1c4.2 0 6-2.8 6-5.6s-1.9-5.6-6-5.6H8.1zm53.2 28.9H35.1V.1h26.2v6.4H41.6v8h19v6.2h-19v7.9h19.7v6.5zM90.4 0H97v35.1h-4.1L74.5 11.5v23.6h-6.6V.1h5.4l17.2 21.7V0zm35.7 0h6.6v35.1h-4.1l-18.4-23.7V35h-6.6V0h5.4l17.2 21.7V0zm12.7 35.1V.1h6.6v35h-6.6zm38.8 0h-26.2V.1h26.2v6.4H158v8h19v6.2h-19v7.9h19.7v6.5z" fill="#F7F7F7"/><path d="M68.8 40.7v1.1c.4-.8 1.2-1.1 2-1.1.4 0 .9.1 1.3.3l-.3.5c-.3-.2-.7-.3-1-.3-1.1 0-2 .9-2 2v3.5h-.6v-5.9h.6zm3.9 2.9c0-1.9 1.3-3.1 3-3.1s3 1.2 3 3.1-1.3 3-3 3-3-1.1-3-3zm5.4 0c0-1.5-1.1-2.5-2.4-2.5s-2.4 1-2.4 2.5 1.1 2.5 2.4 2.5 2.4-.9 2.4-2.5zm2.5-5.4v8.4H80v-8.4h.6zm1.3 5.4c0-1.8 1.3-3.1 3-3.1s3.2 1 2.9 3.3h-5.3c.1 1.4 1.2 2.2 2.4 2.2.8 0 1.7-.3 2.1-.9l.4.3c-.6.8-1.6 1.1-2.6 1.1-1.5.2-2.9-1-2.9-2.9zm5.4-.2c0-1.5-1-2.3-2.4-2.3-1.2 0-2.3.8-2.4 2.3h4.8zm2.1 5.7v-8.4h.6v1.4c.5-.9 1.4-1.5 2.6-1.5 1.6.1 2.9 1.1 2.9 3 0 2-1.3 3.1-3 3.1-1 0-1.9-.5-2.4-1.5V49h-.7zm5.4-5.5c0-1.7-1.1-2.5-2.4-2.5-1.4 0-2.4 1-2.4 2.5s1 2.5 2.4 2.5 2.4-.8 2.4-2.5zm2.6-5.4v8.4h-.6v-8.4h.6zm7.4 2.5v5.9h-.6v-1.3c-.6.9-1.5 1.4-2.4 1.4-1.7 0-3-1.2-3-3.1 0-1.8 1.4-3 3-3 1 0 1.9.4 2.4 1.4v-1.3h.6zm-5.4 2.9c0 1.5 1.1 2.5 2.4 2.5 3.3 0 3.3-5 0-5-1.4.1-2.4 1-2.4 2.5zm11.8-2.9l-3.6 8.4h-.6l1.1-2.5-2.4-5.9h.6l1.4 3.5.7 1.7.7-1.7 1.5-3.5h.6z" fill="#A3A9BC"/><path fill="none" stroke="#A3A9BC" stroke-miterlimit="10" d="M0 43.4h179.3"/></svg>