<svg id="Layer_1" xmlns="http://www.w3.org/2000/svg" viewBox="0 0 315.2 92.2"><style>.st0{fill:#f7f7f7}</style><path class="st0" d="M16.5 19.2l1.8.3h7.9l.5-.1c4.5 0 8.2 2.1 11.3 6.2 1.6 2.3 2.4 4.8 2.4 7.5v.4c0 3.3-1 6.1-3 8.3 5.3 2.9 8 7.6 8 14.1S42 67.3 35.3 70.8c-2.2.8-4.1 1.1-5.8 1.1h-12c-2.3-.4-3.5-1.6-3.5-3.6V23c.4-2.3 1.2-3.5 2.5-3.5v-.3zm4.8 7.6v12.8h3.8c3.9 0 6.3-1.3 7.4-4 .3-.8.5-1.5.5-2.3v-.4c0-2.9-1.7-4.9-5.1-6l-2.6-.1h-4zm0 20v17.8h5.8c4.7 0 7.8-1.3 9.3-3.9 1-1.5 1.5-3.1 1.5-4.9v-.2c0-4.2-2.3-7.1-7-8.5l-3.6-.2h-6zM83.6 68c-3.3 2.6-6.9 3.9-10.9 3.9h-.9c-5.8 0-10.9-2.8-15.1-8.5-2-3.1-3-6.8-3-11.3V37.6c.3-2.7 1.6-4 3.8-4 2.3.6 3.4 1.7 3.4 3.3V51c0 5.6 1.6 9.4 4.7 11.3 2 1.5 4.2 2.3 6.7 2.3 4.7 0 8.2-2.4 10.6-7.2.5-1.6.7-3.2.7-4.7V37.2c.5-2.4 1.7-3.6 3.8-3.6 2.3.5 3.4 1.7 3.4 3.6v31.4c0 1.8-1.1 2.9-3.4 3.3H87c-2.3-.4-3.4-1.6-3.4-3.6V68zm29.1-10.7c5.8-14.2 9-21.6 9.5-22.1.8-.7 1.7-1 2.6-1 2.3.4 3.4 1.5 3.4 3.4v.2c-.1.7-4.2 10.7-12.2 29.8-3.8 9.5-6 14.6-6.6 15.4-.6.4-1.3.8-2.3 1.1-2.4-.5-3.6-1.6-3.6-3.2v-.6c0-.4 1.8-5.1 5.4-13.8L97.3 38.1v-.4c.4-2.3 1.6-3.4 3.5-3.4s3.4 1.9 4.5 5.6c3.8 8.9 6.3 14.7 7.4 17.4zm51.1-5l4.8-4.9c.8-.6 1.7-.9 2.4-.9 2.3 0 3.6 1.3 3.9 3.9 0 1.4-1.7 3.5-5 6.4l-.7.8 6.9 7c.5.7.8 1.4.8 2.1v.5c-.5 2.3-1.7 3.5-3.6 3.5h-.4c-1.3 0-3.2-1.4-5.7-4.3l-3.4-3.4c-4.8 5.2-8.1 7.8-9.8 7.8-1.5.6-3.2.9-4.9.9-5.6 0-10-2.8-13.2-8.3-1-2.3-1.4-4.4-1.4-6.5 0-4.9 2.6-9.4 7.8-13.7l.9-.9c-4.1-3.8-6.1-6.5-6.1-8.1-.2 0-.3-1.1-.3-3.4 0-4.8 2.6-8.5 7.7-11 1.4-.4 2.7-.6 3.7-.6h.7c5 0 8.7 2.7 11 8.2.3 1.3.4 2.3.4 3.2v.7c0 3.8-1.9 7.2-5.8 10.3l-.6.6 9.9 10.1zm-15.4-4.5c-4.1 3.7-6.2 6.4-6.2 8l-.1 1.1v.6c0 3 1.7 5.1 5.1 6.4l1.8.2c2.7 0 5.3-1.7 7.9-5l1.4-1.4-9.9-9.9zm.1-10.7c2.8-2.5 4.2-4.4 4.2-5.6V31c0-1.8-1.1-3.1-3.2-3.9l-1.2-.1c-1.7 0-2.9.9-3.7 2.8l-.2.8v.9c0 1.4 1.3 3.3 4.1 5.6zm51.2-17.9c4.7 0 8.7 2.2 11.8 6.5l.2.9v.9c0 1.7-1.2 2.8-3.6 3.2-1.1 0-2.5-1-4.4-3.1-1.3-.8-2.5-1.2-3.7-1.2h-.8c-2.5 0-4.5 1.4-5.8 4.1-.3.6-.4 1.2-.4 1.8v1.1c0 2.9 1.8 5 5.3 6.3 3.1 0 6.4 1.5 10.1 4.4 3.5 3.6 5.3 7.5 5.3 11.8 0 5.3-2.3 9.6-6.8 12.9-2.8 1.9-5.8 2.9-9.2 2.9-5.4 0-10-2.4-13.6-7.2l-.4-1.5c.4-2.4 1.7-3.6 3.7-3.6 1.3 0 2.7 1 4.3 3.1 1.9 1.3 3.7 2 5.3 2h1.2c3.1 0 5.7-1.8 7.6-5.4.3-1.1.5-2 .5-2.6v-1.3c0-3.1-1.8-5.7-5.4-7.6l-6.9-1.9c-5.5-3.2-8.3-7.4-8.3-12.5v-.9c0-5.1 2.7-9.1 8.1-12 2.3-.7 4.2-1.1 5.9-1.1zm39.1 14.5c7.3 0 13 3.5 17.1 10.4 1.4 2.7 2.1 5.7 2.1 8.9v.8c-.4 2.4-1.6 3.6-3.6 3.6h-26.3c.7 2.3 2.6 4.3 5.7 6 1.9.7 3.6 1.1 5.2 1.1 1.9 0 4.1-.7 6.8-2h1.1c2.2.4 3.3 1.6 3.3 3.4v.4c0 2.8-3.5 4.6-10.4 5.5h-1c-6.8 0-12.3-3.2-16.5-9.6-1.7-3-2.5-6.2-2.5-9.5 0-7 3.3-12.5 9.9-16.7 3.2-1.5 6.3-2.3 9.1-2.3zm-11.3 16.5h23c0-.9-1-2.6-2.9-5.2-2.6-2.5-5.2-3.7-7.7-3.7h-1.4c-3.8 0-7 1.9-9.5 5.7-.9 1.4-1.4 2.5-1.5 3.2zM269 19.6h.6c2.2.5 3.3 1.5 3.3 3.2v41.8h1.7c1.7 0 2.8 1.2 3.3 3.5v.3c-.4 2.3-1.6 3.5-3.6 3.5h-5.1c-1.9 0-3.1-1.2-3.6-3.6V23.4c.4-2.5 1.5-3.8 3.4-3.8zm20 0h.6c2.2.5 3.3 1.5 3.3 3.2v41.8h1.7c1.7 0 2.8 1.2 3.3 3.5v.3c-.4 2.3-1.6 3.5-3.6 3.5h-5.1c-1.9 0-3.1-1.2-3.6-3.6V23.4c.4-2.5 1.5-3.8 3.4-3.8z"/></svg>