<svg id="Layer_1" xmlns="http://www.w3.org/2000/svg" viewBox="0 0 239.7 117.6"><style>.st0{fill:#fff}.st1{fill:#d5d6e0}</style><path class="st0" d="M5.1 5.1h14.1v76.8h23.2v12.8H5.1V5.1zm54.2 21.5c0-7.3 1.7-12.8 5.2-16.7C68 6 73.2 4.1 80.1 4.1S92.2 6 95.6 9.9c3.5 3.9 5.2 9.5 5.2 16.7v2.8H87.5v-3.7c0-3.2-.6-5.5-1.9-6.8-1.2-1.3-3-2-5.2-2s-3.9.7-5.2 2c-1.2 1.3-1.9 3.6-1.9 6.8 0 3.1.7 5.8 2 8.1 1.4 2.3 3.1 4.6 5.1 6.7 2 2.1 4.2 4.2 6.6 6.3 2.3 2.1 4.5 4.4 6.6 6.8 2 2.5 3.8 5.3 5.1 8.4 1.4 3.2 2 6.9 2 11.1 0 7.3-1.8 12.8-5.3 16.7-3.5 3.9-8.8 5.8-15.7 5.8S67.6 93.7 64 89.8c-3.3-3.8-5-9.3-5-16.6v-5.5h13.3v6.4c0 3.2.7 5.5 2 6.8 1.3 1.3 3.1 1.9 5.3 1.9 2.2 0 4-.6 5.3-1.9 1.3-1.3 2-3.5 2-6.8 0-3.1-.7-5.8-2-8.1-1.4-2.3-3.1-4.6-5.1-6.7-2-2.1-4.2-4.2-6.6-6.3-2.3-2.1-4.5-4.4-6.6-6.8-2-2.5-3.8-5.3-5.1-8.4-1.5-3.2-2.2-6.9-2.2-11.2zm81.1-21.5c7.1 0 12.4 1.9 15.8 5.6 3.5 3.8 5.2 9.3 5.2 16.5v11.6c0 7.3-1.7 12.8-5.2 16.5-3.5 3.8-8.7 5.6-15.8 5.6h-6.7v33.7h-14.1V5.1h20.8zm-6.7 12.8v30.3h6.7c2.2 0 3.9-.6 5.1-1.8 1.2-1.2 1.8-3.4 1.8-6.7V26.4c0-3.2-.6-5.5-1.8-6.7-1.2-1.2-2.9-1.8-5.1-1.8h-6.7zm46.1-12.8H202c7.1 0 12.4 1.9 15.8 5.6 3.5 3.8 5.2 9.3 5.2 16.5v45.3c0 7.3-1.7 12.8-5.2 16.5-3.5 3.8-8.7 5.6-15.8 5.6h-22.3V5.1zm14 12.8v64h7.9c2.2 0 4-.6 5.2-1.9 1.3-1.3 1.9-3.5 1.9-6.8V26.6c0-3.2-.6-5.5-1.9-6.8-1.3-1.3-3-1.9-5.2-1.9h-7.9z"/><path class="st1" d="M77.8 102.5l-.4 1.2h.2l-.2 1.1h-.6l.2-1.1.5-1.2h.3zm1.2 0l-.4 1.2h.2l-.2 1.1H78l.2-1.1.5-1.2h.3zm.6 8.8l.2-1h.5l-.2 1h-.5zm2.5 0l.2-1h.5l-.2 1h-.5zm2.5 0l.2-1h.5l-.2 1h-.5zm4 .1c-.3 0-.5-.1-.7-.2-.2-.1-.3-.4-.3-.6v-.2l1-4.7h-.8l.2-.7h.8l.4-2.1h.6l-.4 2.1h1.4l-.1.5h-1.4l-.9 4.2c-.1.3-.1.4-.1.5 0 .2.1.3.2.4.1.1.3.1.4.1h.3c.1 0 .2-.1.3-.1s.2-.1.2-.1.1 0 .1-.1l.2.6s-.1.1-.2.1-.2.1-.3.1-.3.1-.4.1c-.1 0-.3.1-.5.1zm5 0c-.4 0-.7-.1-1-.2s-.5-.3-.7-.6c-.2-.2-.3-.5-.5-.8-.1-.3-.2-.7-.2-1 0-.5.1-1 .3-1.5.2-.5.5-.9.8-1.2.3-.4.7-.6 1.2-.9.4-.2.9-.3 1.4-.3.4 0 .7.1 1 .2.3.1.5.3.7.6.2.2.3.5.5.8.1.3.2.7.2 1 0 .5-.1 1-.3 1.4s-.5.9-.8 1.2c-.3.4-.7.6-1.2.9-.4.3-.9.4-1.4.4zm.2-.5c.4 0 .7-.1 1.1-.3.4-.2.7-.4.9-.7.3-.3.5-.6.7-1s.3-.8.3-1.2c0-.3 0-.6-.1-.9-.1-.3-.2-.5-.4-.7-.2-.2-.3-.4-.6-.5-.2-.1-.5-.2-.7-.2-.4 0-.7.1-1.1.3-.3.2-.7.4-.9.7-.3.3-.5.6-.7 1s-.3.8-.3 1.2c0 .3 0 .6.1.8s.2.5.4.7c.2.2.3.3.6.5.1.2.4.3.7.3zm9.7-5.9h.5l-.3 1.2c.3-.4.7-.7 1.2-1s.9-.4 1.4-.4c.4 0 .7.1.9.2.3.1.5.3.7.6.2.2.3.5.4.8.1.3.1.7.1 1 0 .5-.1 1-.3 1.4-.2.5-.4.9-.8 1.2-.3.4-.7.6-1.1.9s-.9.3-1.3.3c-.5 0-.9-.1-1.3-.4s-.6-.6-.7-1l-.8 3.9h-.6l2-8.7zm1.6 5.9c.4 0 .8-.1 1.1-.3s.7-.4.9-.7c.3-.3.5-.6.6-1 .2-.4.2-.8.2-1.1 0-.3 0-.6-.1-.8s-.2-.5-.4-.7-.4-.4-.6-.5c-.2-.1-.5-.2-.8-.2-.2 0-.4 0-.7.1s-.5.2-.7.4c-.2.2-.4.3-.6.5-.2.2-.3.4-.4.6l-.4 2.1c0 .2.1.4.2.6s.2.4.4.5c.2.2.3.3.5.4.3 0 .5.1.8.1zm6.1-5.9h.6l-.3 1.5c.3-.5.7-.9 1.2-1.1.4-.3.9-.4 1.3-.4h.2l-.1.5c-.5 0-1 .2-1.5.5s-.8.8-1.1 1.3l-.8 3.9h-.6l1.1-6.2zm5.3 6.4c-.4 0-.7-.1-1-.2s-.5-.3-.7-.6c-.2-.2-.3-.5-.5-.8-.1-.3-.2-.7-.2-1 0-.5.1-1 .3-1.5.2-.5.5-.9.8-1.2.3-.4.7-.6 1.2-.9.4-.2.9-.3 1.4-.3.4 0 .7.1 1 .2.3.1.5.3.7.6.2.2.3.5.5.8.1.3.2.7.2 1 0 .5-.1 1-.3 1.4s-.5.9-.8 1.2c-.3.4-.7.6-1.2.9-.4.3-.9.4-1.4.4zm.1-.5c.4 0 .7-.1 1.1-.3.4-.2.7-.4.9-.7.3-.3.5-.6.7-1s.3-.8.3-1.2c0-.3 0-.6-.1-.9-.1-.3-.2-.5-.4-.7-.2-.2-.3-.4-.6-.5-.2-.1-.5-.2-.7-.2-.4 0-.7.1-1.1.3-.3.2-.7.4-.9.7s-.5.6-.7 1-.3.8-.3 1.2c0 .3 0 .6.1.8s.2.5.4.7c.2.2.3.3.6.5s.5.3.7.3zm6.2.5c-.3 0-.5-.1-.7-.2-.2-.1-.3-.4-.3-.6v-.2l1-4.7h-.8l.1-.5h.8l.4-2.1h.6l-.4 2.1h1.4l-.1.5h-1.4l-.9 4.2c-.1.3-.1.4-.1.5 0 .2.1.3.2.4.1.1.3.1.4.1h.3c.1 0 .2-.1.3-.1s.2-.1.2-.1c.1 0 .1 0 .1-.1l.1.5s-.1.1-.2.1-.2.1-.3.1-.3.1-.4.1c0-.1-.2 0-.3 0zm5 0c-.4 0-.7-.1-1-.2s-.5-.3-.7-.6-.4-.5-.5-.8c-.1-.3-.2-.7-.2-1 0-.5.1-1 .3-1.4.2-.5.5-.9.8-1.2.3-.4.7-.6 1.2-.9.5-.2.9-.3 1.5-.3.2 0 .5 0 .7.1l.6.3c.2.1.3.3.4.5.1.2.2.4.2.7 0 1.2-1.1 1.8-3.3 1.8h-1.7v.4c0 .3 0 .6.1.8.1.3.2.5.3.7.2.2.4.4.6.5.2.1.5.2.8.2.2 0 .4 0 .6-.1.2-.1.4-.1.6-.3.2-.1.4-.2.5-.4.2-.2.3-.3.4-.5l.5.2c-.1.2-.3.5-.5.6-.2.2-.4.4-.7.5-.2.1-.5.2-.8.3-.1.1-.4.1-.7.1zm1.3-6c-.4 0-.7.1-1 .2-.3.1-.6.3-.8.6-.2.2-.5.5-.6.8-.2.3-.3.6-.4.9h1.7c.5 0 .9 0 1.3-.1.3-.1.6-.2.8-.3.2-.1.4-.3.4-.4.1-.2.1-.3.1-.5s0-.4-.1-.5-.2-.3-.3-.4-.3-.2-.5-.2c-.2-.1-.4-.1-.6-.1zm5.6 6c-.4 0-.7-.1-1-.2s-.5-.3-.7-.6c-.2-.2-.4-.5-.5-.8-.1-.3-.2-.7-.2-1 0-.5.1-1 .3-1.5.2-.5.5-.9.8-1.2.3-.4.7-.6 1.2-.8.4-.2.9-.3 1.4-.3.5 0 1 .1 1.4.4.4.3.6.6.7 1.1l-.6.2c-.1-.3-.3-.6-.6-.8-.3-.2-.6-.3-1-.3s-.7.1-1.1.3c-.4.2-.7.4-.9.7-.3.3-.5.6-.7 1s-.3.8-.3 1.2c0 .3 0 .6.1.9.1.3.2.5.4.7s.3.3.6.5c.2.1.5.2.7.2.2 0 .4 0 .6-.1.2-.1.4-.1.6-.3.2-.1.4-.2.5-.4.1-.1.3-.3.3-.4l.6.2c-.1.2-.3.4-.5.6-.2.2-.4.3-.7.5-.2.1-.5.2-.8.3 0-.1-.3-.1-.6-.1zm5.6 0c-.3 0-.5-.1-.7-.2-.2-.1-.3-.4-.3-.6v-.2l1-4.7h-.8l.1-.5h.8l.4-2.1h.6l-.4 2.1h1.4l-.1.5H141l-.9 4.2c-.1.3-.1.4-.1.5 0 .2.1.3.2.4s.3.1.4.1h.3c.1 0 .2-.1.3-.1s.2-.1.2-.1c.1 0 .1 0 .1-.1l.1.5s-.1.1-.2.1-.2.1-.3.1-.3.1-.4.1c-.1-.1-.2 0-.4 0zm8.9 0c-.3 0-.7-.1-.9-.2-.3-.1-.5-.3-.7-.6-.2-.2-.3-.5-.4-.8-.1-.3-.2-.7-.2-1 0-.5.1-1 .3-1.4s.5-.9.8-1.2c.3-.4.7-.6 1.1-.9.4-.2.9-.3 1.3-.3.3 0 .5 0 .7.1l.6.3c.2.1.3.3.4.5l.3.6.3-1.4h.6l-1.2 5.4v.1c0 .1.1.2.2.2l-.1.5h-.2c-.2 0-.3 0-.4-.1s-.1-.2-.1-.3v-.4c0-.1 0-.2.1-.4-.3.4-.7.7-1.2 1s-.9.3-1.3.3zm.2-.5c.2 0 .5 0 .7-.1.3-.1.5-.2.7-.4s.4-.3.6-.5c.2-.2.3-.4.4-.6l.4-2.1c0-.2-.1-.4-.2-.6-.1-.2-.2-.4-.4-.5-.2-.2-.3-.3-.6-.4s-.4-.1-.7-.1c-.4 0-.7.1-1.1.3-.3.2-.6.4-.9.8-.3.3-.5.7-.6 1-.2.4-.2.8-.2 1.2 0 .3 0 .6.1.8s.2.5.4.7c.2.2.4.4.6.5.3-.1.5 0 .8 0zm6.4-5.9h.6l-.3 1.5c.2-.2.4-.5.6-.7.2-.2.5-.4.7-.5.3-.1.5-.2.8-.3.3-.1.5-.1.8-.1.5 0 .8.1 1 .4s.3.6.3 1.1v.6c0 .2-.1.4-.1.7l-.8 3.6h-.6l.7-3.5c0-.2.1-.4.1-.6v-.5c0-.8-.3-1.2-1-1.2-.2 0-.5 0-.8.1-.3.1-.5.2-.8.4s-.5.4-.7.6-.4.5-.5.8l-.8 3.9h-.6l1.4-6.3zm8.3 6.4c-.4 0-.7-.1-.9-.2-.3-.1-.5-.3-.7-.6-.2-.2-.3-.5-.4-.8-.1-.3-.2-.7-.2-1 0-.5.1-1 .3-1.4s.5-.9.8-1.2c.3-.4.7-.6 1.1-.9.4-.2.9-.3 1.3-.3.3 0 .5 0 .7.1l.6.3c.2.1.3.3.4.5l.3.6.8-3.9h.6l-1.7 7.9v.1c0 .1.1.2.2.2l-.1.5h-.2c-.3 0-.4-.2-.4-.4v-.4c0-.1 0-.2.1-.4-.3.4-.7.7-1.2 1s-1 .3-1.4.3zm.2-.5c.2 0 .4 0 .7-.1s.5-.2.7-.4.4-.3.6-.5c.2-.2.3-.4.4-.6l.4-2.1c0-.2-.1-.4-.2-.6-.1-.2-.3-.4-.4-.5-.2-.1-.3-.3-.6-.4-.2-.1-.4-.1-.6-.1-.4 0-.8.1-1.1.3-.4.2-.7.4-.9.8-.3.3-.5.7-.6 1-.2.4-.2.8-.2 1.1 0 .3 0 .6.1.8.1.3.2.5.4.7.2.2.4.4.6.5.2 0 .4.1.7.1zm10.1.5c-.3 0-.5-.1-.7-.2-.2-.1-.3-.4-.3-.6v-.2l1-4.7h-.8l.1-.5h.8l.4-2.1h.6l-.4 2.1h1.4l-.1.5H175l-.9 4.2c-.1.3-.1.4-.1.5 0 .2.1.3.2.4s.3.1.4.1h.3c.1 0 .2-.1.3-.1s.2-.1.2-.1c.1 0 .1 0 .1-.1l.1.5s-.1.1-.2.1-.2.1-.3.1-.3.1-.4.1c0-.1-.2 0-.3 0zm5 0c-.4 0-.7-.1-1-.2s-.5-.3-.7-.6c-.2-.2-.3-.5-.5-.8-.1-.3-.2-.7-.2-1 0-.5.1-1 .3-1.5.2-.5.5-.9.8-1.2.3-.4.7-.6 1.2-.9.4-.2.9-.3 1.4-.3.4 0 .7.1 1 .2.3.1.5.3.7.6.2.2.3.5.5.8.1.3.2.7.2 1 0 .5-.1 1-.3 1.4s-.5.9-.8 1.2c-.3.4-.7.6-1.2.9-.5.3-1 .4-1.4.4zm.1-.5c.4 0 .7-.1 1.1-.3.4-.2.7-.4.9-.7.3-.3.5-.6.7-1s.3-.8.3-1.2c0-.3 0-.6-.1-.9-.1-.3-.2-.5-.4-.7-.2-.2-.3-.4-.6-.5-.2-.1-.5-.2-.7-.2-.4 0-.7.1-1.1.3-.3.2-.7.4-.9.7s-.5.6-.7 1-.3.8-.3 1.2c0 .3 0 .6.1.8s.2.5.4.7c.2.2.3.3.6.5s.4.3.7.3zm10.3.5c-.5 0-.9-.1-1.3-.2-.4-.2-.7-.4-.9-.7l.4-.4c.3.3.5.5.9.7.3.1.7.2 1.1.2.3 0 .6 0 .8-.1.2-.1.5-.2.6-.3.2-.1.3-.3.4-.5.1-.2.1-.4.1-.6 0-.3-.1-.5-.4-.7-.3-.1-.7-.3-1.2-.4-.3-.1-.5-.1-.7-.2s-.4-.2-.5-.2l-.3-.3c-.1-.1-.1-.3-.1-.5 0-.3.1-.7.2-.9.1-.3.3-.5.6-.7.2-.2.5-.3.8-.4s.6-.1 1-.1c.5 0 .9.1 1.2.2s.6.4.7.6l-.4.3c-.1-.2-.3-.4-.6-.5-.3-.1-.6-.2-1-.2-.2 0-.5 0-.7.1l-.6.3c-.2.1-.3.3-.4.5-.1.2-.2.4-.2.7 0 .1 0 .3.1.3.1.1.1.2.2.2.1.1.2.1.4.2s.4.1.6.2c.3.1.6.2.8.2s.5.2.6.3c.2.1.3.2.4.4.1.1.1.3.1.5 0 .3-.1.6-.2.9-.1.3-.3.5-.6.7-.2.2-.5.3-.9.4-.3-.1-.6 0-1 0zm6.6 0c-.4 0-.7-.1-1-.2s-.5-.3-.7-.6-.4-.5-.5-.8c-.1-.3-.2-.7-.2-1 0-.5.1-1 .3-1.4.2-.5.5-.9.8-1.2.3-.4.7-.6 1.2-.9.5-.2.9-.3 1.5-.3.2 0 .5 0 .7.1l.6.3c.2.1.3.3.4.5.1.2.2.4.2.7 0 1.2-1.1 1.8-3.3 1.8h-1.7v.4c0 .3 0 .6.1.8.1.3.2.5.3.7.2.2.4.4.6.5.2.1.5.2.8.2.2 0 .4 0 .6-.1.2-.1.4-.1.6-.3.2-.1.4-.2.5-.4.2-.2.3-.3.4-.5l.5.2c-.1.2-.3.5-.5.6-.2.2-.4.4-.7.5-.2.1-.5.2-.8.3-.1.1-.4.1-.7.1zm1.3-6c-.4 0-.7.1-1 .2-.3.1-.6.3-.8.6-.2.2-.5.5-.6.8-.2.3-.3.6-.4.9h1.7c.5 0 .9 0 1.3-.1.3-.1.6-.2.8-.3.2-.1.4-.3.4-.4.1-.2.1-.3.1-.5s0-.4-.1-.5-.2-.3-.3-.4-.3-.2-.5-.2c-.2-.1-.4-.1-.6-.1zm4.5-.4h.6l-.3 1.5c.3-.5.7-.9 1.2-1.1.4-.3.9-.4 1.3-.4h.2l-.1.5c-.5 0-1 .2-1.5.5s-.8.8-1.1 1.3l-.8 3.9h-.6l1.1-6.2zm4 0h.6l.8 5.6c.7-.9 1.3-1.8 1.9-2.8s.9-1.9 1.1-2.8h.6c-.3 1-.7 2.1-1.3 3.1s-1.3 2.1-2.1 3.1h-.6l-1-6.2zm8.1 6.4c-.4 0-.7-.1-1-.2s-.5-.3-.7-.6-.4-.5-.5-.8c-.1-.3-.2-.7-.2-1 0-.5.1-1 .3-1.4.2-.5.4-.9.8-1.2.3-.4.7-.6 1.2-.9.5-.2.9-.3 1.5-.3.2 0 .5 0 .7.1l.6.3c.2.1.3.3.4.5.1.2.2.4.2.7 0 1.2-1.1 1.8-3.3 1.8h-1.7v.4c0 .3 0 .6.1.8.1.3.2.5.3.7.2.2.4.4.6.5.2.1.5.2.8.2.2 0 .4 0 .6-.1.2-.1.4-.1.6-.3.2-.1.4-.2.5-.4.2-.2.3-.3.4-.5l.5.2c-.1.2-.3.5-.5.6-.2.2-.4.4-.7.5-.2.1-.5.2-.8.3-.1.1-.4.1-.7.1zm1.3-6c-.4 0-.7.1-1 .2-.3.1-.6.3-.8.6-.2.2-.5.5-.6.8s-.3.6-.4.9h1.7c.5 0 .9 0 1.3-.1.3-.1.6-.2.8-.3s.4-.3.5-.4c.1-.2.1-.3.1-.5s0-.4-.1-.5-.2-.3-.3-.4-.3-.2-.5-.2-.5-.1-.7-.1zm3.1 5.9l.2-1h.5l-.2 1h-.5zm3.2-6.5l.4-1.2h-.2l.2-1.1h.6l-.2 1.1-.5 1.2h-.3zm1.2 0l.4-1.2h-.2l.2-1.1h.6l-.2 1.1-.5 1.2h-.3z"/></svg>