<svg id="Layer_1" xmlns="http://www.w3.org/2000/svg" viewBox="0 0 381 88.5"><style>.st0{fill:#f7f7f7}</style><path class="st0" d="M94.3 68.6c.5.8.7 1.8.7 3.1 0 2.4-.6 4.4-1.8 5.8-3 3.6-6.1 6.5-9.1 8.4-3.1 2-6.7 3-10.9 3-4.1 0-7.5-1.1-10.4-3.3-2.9-2.2-5.6-6-8.1-11.3-2.1-4.3-3.7-7.4-4.9-9.5-1.2-2-2.4-3.5-3.5-4.4-1.2-.9-2.6-1.4-4.3-1.6-.3 1.3-1 5.5-2.2 12.4-.5 3.1-.8 5.1-.9 5.7-.6 3.8-1.9 6.8-3.8 8.8-1.9 2-4.7 3.1-8.6 3.1-4.2 0-7.9-1.2-11.2-3.7-3.2-2.5-5.7-5.9-7.5-10.4-1.8-4.4-2.6-9.5-2.6-15.1C5.2 49.1 7 40 10.7 32.3c3.7-7.7 8.8-13.5 15.4-17.6 6.6-4 14.3-6.1 22.9-6.1 6 0 11.1.9 15.2 2.7 4.1 1.8 7.1 4.3 9.1 7.5s3 6.8 3 10.8c0 3.5-.8 7-2.5 10.3-1.7 3.4-4.2 6.3-7.5 8.9-3.3 2.6-7.4 4.5-12.1 5.7 3 .8 5.3 2.1 7 4 1.6 1.8 3.3 4.5 4.9 8 1.8 3.8 3.5 6.5 5.2 8.3 1.7 1.8 3.7 2.6 6 2.6 2 0 3.9-.7 5.7-2 1.8-1.3 4.1-3.7 6.9-6.9.8-.9 1.6-1.3 2.5-1.3.8.3 1.4.7 1.9 1.4zm-65.4-9.7c-2.1 0-3.6-.5-4.4-1.5-.8-1-1.2-2.1-1.2-3.4 0-1.5.5-2.7 1.5-3.6 1-.9 2.1-1.3 3.3-1.3h2.4c1-6.2 1.9-11.5 2.8-15.9.8-4.1 3.5-6.1 7.9-6.1 3.6 0 5.4 1.6 5.4 4.8 0 .7 0 1.2-.1 1.6l-2.8 15.6c3.4-.2 6.5-1 9.3-2.4 2.8-1.4 5-3.5 6.7-6 1.7-2.6 2.5-5.5 2.5-8.8 0-4-1.4-7.1-4-9.3-2.7-2.3-6.7-3.4-11.9-3.4-6.2 0-11.5 1.5-16.1 4.6-4.6 3-8.2 7.6-10.8 13.6-2.6 6-3.9 13.3-3.9 21.9 0 4 .4 7.5 1.2 10.4.8 2.9 1.8 5.1 3 6.5 1.2 1.4 2.3 2.2 3.4 2.2.8 0 1.5-.4 2-1.2.5-.8 1-2.1 1.3-4l2.5-14.3zM96.2 64c-.9-1-1.4-2.4-1.4-4.2 0-1.7.4-3 1.3-3.8.8-.8 2.1-1.3 3.7-1.4l19.3-1.9c1.6-.1 2.8.3 3.6 1.2s1.3 2.2 1.3 4c0 3.4-1.6 5.2-4.9 5.6l-19.3 1.9c-1.5.1-2.7-.4-3.6-1.4zm42.9 20.5c-5-3.2-7.5-8-7.5-14.5 0-3.5.6-6.1 1.8-7.9 1.2-1.8 3-2.7 5.3-2.7 1.7 0 3.1.4 4.1 1.3 1.1.9 1.6 2 1.6 3.4 0 1.3-.1 2.4-.3 3.3 0 .3 0 .7-.1 1.3-.1.6-.1 1.3-.1 2 0 2.8 1.4 4.9 4.3 6.3 2.9 1.4 6.9 2.1 12 2.1 5.3 0 9.5-1 12.5-2.9s4.5-4.6 4.5-8.1c0-2.1-.7-4-2.1-5.5-1.4-1.5-3.1-2.8-5.2-3.9-2.1-1-5-2.3-8.8-3.8-4.8-1.9-8.8-3.7-11.8-5.4-3-1.7-5.7-4-7.8-6.9-2.2-2.9-3.2-6.5-3.2-10.9 0-4.5 1.2-8.5 3.6-12.1 2.4-3.5 5.9-6.2 10.5-8.2 4.6-1.9 9.9-2.9 16.1-2.9 4.6 0 8.8.7 12.6 2 3.8 1.4 6.9 3.4 9.2 6.2 2.3 2.8 3.4 6.2 3.4 10.2 0 4-.6 6.9-1.8 8.9-1.2 2-3 3-5.3 3-1.6 0-3-.5-4.1-1.5-1.1-1-1.6-2.2-1.6-3.6 0-1.2.1-2.3.3-3.3.2-1.9.3-3.1.3-3.6 0-2.6-1.3-4.6-3.9-6-2.6-1.4-5.8-2.1-9.6-2.1-5.4 0-9.5 1-12.4 3-2.9 2-4.3 4.8-4.3 8.3 0 2.4.7 4.4 2.2 6.1 1.5 1.7 3.3 3.1 5.5 4.2s5.3 2.5 9.2 4c4.8 1.9 8.6 3.7 11.5 5.3 2.9 1.6 5.4 3.7 7.4 6.4s3.1 6 3.1 10c0 7.4-2.8 13.1-8.4 17.1-5.6 4-13.1 6-22.6 6-8.4.2-15.1-1.4-20.1-4.6zM248 60.8c.4.8.7 1.9.7 3.1 0 3-.9 4.8-2.7 5.4-3.8 1.3-7.9 2.1-12.4 2.3-1.2 5.3-3.5 9.5-7.1 12.7-3.5 3.2-7.5 4.8-12 4.8-3.8 0-7-.9-9.7-2.7-2.7-1.8-4.7-4.2-6.1-7.3-1.4-3-2.1-6.3-2.1-9.8 0-4.8.9-9 2.7-12.8 1.8-3.7 4.3-6.7 7.5-8.8 3.2-2.1 6.7-3.2 10.6-3.2 4.8 0 8.6 1.6 11.5 4.9 2.9 3.3 4.6 7.4 5.1 12.2 3-.2 6.5-.8 10.5-1.9.5-.1.9-.2 1.3-.2 1.2.1 1.8.5 2.2 1.3zm-27.5 15.8c1.5-1.6 2.5-4 3-7.1-1.9-1.3-3.4-3-4.5-5.2-1-2.1-1.6-4.4-1.6-6.8 0-1 .1-2 .3-3h-.5c-2.5 0-4.6 1.2-6.3 3.6-1.7 2.4-2.5 5.8-2.5 10.2 0 3.5.7 6.1 2 7.9 1.3 1.8 2.9 2.7 4.8 2.7 2.1.1 3.8-.7 5.3-2.3z"/><path class="st0" d="M244.2 83.8c-3.4-3.5-5.1-8.1-5.1-13.8 0-5.1 1-9.5 3-13.4 2-3.8 4.6-6.8 7.8-8.9 3.2-2.1 6.6-3.1 10.1-3.1s6.1 1 8.1 3.1c1.9 2 2.9 4.7 2.9 7.9 0 2.6-.6 4.9-1.7 6.7-1.2 1.8-2.7 2.7-4.6 2.7-1.2 0-2.2-.3-2.9-.8-.7-.6-1.1-1.3-1.1-2.4 0-.4.1-.9.2-1.5s.2-1 .3-1.2c.3-.9.5-1.8.5-2.6s-.2-1.4-.6-1.9c-.4-.4-1-.7-1.7-.7-1.4 0-2.8.6-4 1.9-1.3 1.3-2.3 3-3 5.2-.8 2.2-1.1 4.6-1.1 7.3 0 7.3 3.2 10.9 9.5 10.9 2.6 0 5.4-.9 8.3-2.6 3-1.7 5.9-4.3 8.8-7.8.8-.9 1.6-1.3 2.5-1.3.8 0 1.5.4 1.9 1.1.5.8.7 1.8.7 3.1 0 2.4-.6 4.3-1.8 5.8-3 3.6-6.5 6.5-10.6 8.4-4.1 2-8.1 3-11.9 3-6.3.1-11.1-1.7-14.5-5.1z"/><path class="st0" d="M277.9 84.7c-1.9-2.9-2.8-6.7-2.8-11.5 0-2.8.4-6.5 1.1-10.9.7-4.4 1.6-8.6 2.8-12.4.6-2 1.3-3.4 2.3-4.1.9-.8 2.4-1.1 4.5-1.1 3.2 0 4.8 1.1 4.8 3.2 0 1.6-.6 5.2-1.8 10.9-1.5 6.9-2.3 11.6-2.3 14 0 1.9.3 3.3.8 4.3s1.3 1.5 2.5 1.5c1.1 0 2.5-.8 4.2-2.4 1.7-1.6 4-4 6.8-7.4.8-.9 1.6-1.3 2.5-1.3.8 0 1.5.4 1.9 1.1.5.8.7 1.8.7 3.1 0 2.5-.6 4.5-1.8 5.8-6.2 7.6-12 11.4-17.4 11.4-3.9.1-6.9-1.4-8.8-4.2zm3.8-48.1c-1.3-1.2-2-2.9-2-5.1 0-2.2.9-4 2.6-5.5 1.7-1.5 3.9-2.2 6.5-2.2 2.3 0 4.2.6 5.7 1.7 1.4 1.1 2.2 2.7 2.2 4.8 0 2.5-.8 4.5-2.4 6-1.6 1.5-3.8 2.2-6.5 2.2-2.8-.1-4.8-.7-6.1-1.9z"/><path class="st0" d="M300.7 84.8c-2.3-2.8-3.5-6.5-3.5-11.1 0-5 1.2-9.8 3.5-14.3s5.4-8.1 9.3-10.8c3.9-2.7 8-4.1 12.3-4.1 1.4 0 2.3.3 2.8.8s.9 1.5 1.2 2.9c1.3-.3 2.7-.4 4.1-.4 3.1 0 4.6 1.1 4.6 3.3 0 1.3-.5 4.5-1.4 9.4-1.4 7.2-2.2 12.2-2.2 15.1 0 .9.2 1.7.7 2.3.5.6 1.1.8 1.8.8 1.2 0 2.6-.8 4.3-2.3 1.7-1.5 4-4 6.9-7.5.8-.9 1.6-1.3 2.5-1.3.8 0 1.5.4 1.9 1.1.5.8.7 1.8.7 3.1 0 2.5-.6 4.5-1.8 5.8-2.6 3.2-5.3 5.9-8.2 8.1-2.9 2.2-5.7 3.3-8.4 3.3-2.1 0-4-.7-5.7-2.1-1.7-1.4-3-3.3-3.9-5.8-3.1 5.3-7.2 7.9-12.2 7.9-3.9 0-7-1.4-9.3-4.2zm16.6-7.8c1.3-1.6 2.2-3.8 2.7-6.5l3.5-17.3c-2.6.1-5.1 1.1-7.3 3s-4 4.4-5.3 7.6c-1.3 3.1-2 6.5-2 10 0 1.9.4 3.4 1.2 4.3.8.9 1.9 1.4 3.2 1.4 1.5 0 2.8-.8 4-2.5z"/><path class="st0" d="M380.3 68.6c.5.8.7 1.8.7 3.1 0 2.5-.6 4.5-1.8 5.8-2.7 3.3-5.6 6.1-8.8 8.2-3.2 2.1-6.8 3.2-10.8 3.2-5.5 0-9.6-2.5-12.3-7.5-2.7-5-4-11.5-4-19.5 0-7.7 1-16.4 3-26.2s4.9-18.2 8.8-25.2C359 3.5 363.6 0 368.9 0c3 0 5.4 1.4 7.1 4.2 1.7 2.8 2.6 6.8 2.6 12 0 7.5-2.1 16.1-6.2 26-4.1 9.9-9.8 19.6-16.9 29.3.4 2.6 1.2 4.4 2.2 5.5 1 1.1 2.3 1.6 4 1.6 2.6 0 4.8-.7 6.8-2.2 1.9-1.5 4.4-4 7.4-7.6.8-.9 1.6-1.3 2.5-1.3.8 0 1.4.4 1.9 1.1zm-18.4-51.5c-1.8 5.2-3.4 11.7-4.8 19.4-1.4 7.7-2.1 15.1-2.3 22.2 4.5-7.3 8-14.7 10.6-22.1 2.6-7.4 4-14.1 4-20.2 0-4.8-.9-7.2-2.6-7.2-1.5.1-3.1 2.7-4.9 7.9z"/></svg>