<?xml version="1.0" encoding="utf-8"?>
<!-- Generator: Adobe Illustrator 18.0.0, SVG Export Plug-In . SVG Version: 6.00 Build 0)  -->
<!DOCTYPE svg PUBLIC "-//W3C//DTD SVG 1.1//EN" "http://www.w3.org/Graphics/SVG/1.1/DTD/svg11.dtd">
<svg version="1.1" id="Layer_1" xmlns="http://www.w3.org/2000/svg" xmlns:xlink="http://www.w3.org/1999/xlink" x="0px" y="0px"
	 viewBox="0 0 179.3 49.1" enable-background="new 0 0 179.3 49.1" xml:space="preserve">
<g>
	<path fill="#F7F7F7" d="M32.5,35.1h-7.9L14.4,23.4H8.1v11.7H1.5V0C7,0,12.6,0.1,18.1,0.1c8.3,0,12.6,5.5,12.6,11.6
		c0,4.8-2.2,9.7-8.9,11l10.6,12V35.1z M8.1,6.2v11.2h10.1c4.2,0,6-2.8,6-5.6c0-2.8-1.9-5.6-6-5.6H8.1z"/>
	<path fill="#F7F7F7" d="M61.3,35.1H35.1c0-11.7,0-23.4,0-35h26.2v6.4H41.6v8h19v6.2h-19v7.9h19.7V35.1z"/>
	<path fill="#F7F7F7" d="M90.4,0H97v35.1h-4.1v0L74.5,11.5v23.6h-6.6v-35h5.4l17.2,21.7V0z"/>
	<path fill="#F7F7F7" d="M126.1,0h6.6v35.1h-4.1v0l-18.4-23.7v23.6h-6.6v-35h5.4l17.2,21.7V0z"/>
	<path fill="#F7F7F7" d="M138.8,35.1v-35h6.6v35H138.8z"/>
	<path fill="#F7F7F7" d="M177.6,35.1h-26.2c0-11.7,0-23.4,0-35h26.2v6.4H158v8h19v6.2h-19v7.9h19.7V35.1z"/>
</g>
<g>
	<g>
		<path fill="#A3A9BC" d="M68.8,40.7l0,1.1c0.4-0.8,1.2-1.1,2-1.1c0.4,0,0.9,0.1,1.3,0.3l-0.3,0.5c-0.3-0.2-0.7-0.3-1-0.3
			c-1.1,0-2,0.9-2,2v3.5h-0.6v-5.9H68.8z"/>
		<path fill="#A3A9BC" d="M72.7,43.6c0-1.9,1.3-3.1,3-3.1s3,1.2,3,3.1s-1.3,3-3,3S72.7,45.5,72.7,43.6z M78.1,43.6
			c0-1.5-1.1-2.5-2.4-2.5s-2.4,1-2.4,2.5s1.1,2.5,2.4,2.5S78.1,45.2,78.1,43.6z"/>
		<path fill="#A3A9BC" d="M80.6,38.2v8.4H80v-8.4H80.6z"/>
		<path fill="#A3A9BC" d="M81.9,43.6c0-1.8,1.3-3.1,3-3.1c1.7,0,3.2,1,2.9,3.3h-5.3c0.1,1.4,1.2,2.2,2.4,2.2c0.8,0,1.7-0.3,2.1-0.9
			l0.4,0.3c-0.6,0.8-1.6,1.1-2.6,1.1C83.3,46.7,81.9,45.5,81.9,43.6z M87.3,43.4c0-1.5-1-2.3-2.4-2.3c-1.2,0-2.3,0.8-2.4,2.3H87.3z"
			/>
		<path fill="#A3A9BC" d="M89.4,49.1v-8.4H90v1.4c0.5-0.9,1.4-1.5,2.6-1.5c1.6,0.1,2.9,1.1,2.9,3c0,2-1.3,3.1-3,3.1
			c-1,0-1.9-0.5-2.4-1.5v3.8H89.4z M94.8,43.6c0-1.7-1.1-2.5-2.4-2.5c-1.4,0-2.4,1-2.4,2.5s1,2.5,2.4,2.5
			C93.8,46.1,94.8,45.3,94.8,43.6z"/>
		<path fill="#A3A9BC" d="M97.4,38.2v8.4h-0.6v-8.4H97.4z"/>
		<path fill="#A3A9BC" d="M104.8,40.7c0,2,0,3.9,0,5.9h-0.6v-1.3c-0.6,0.9-1.5,1.4-2.4,1.4c-1.7,0-3-1.2-3-3.1c0-1.8,1.4-3,3-3
			c1,0,1.9,0.4,2.4,1.4v-1.3H104.8z M99.4,43.6c0,1.5,1.1,2.5,2.4,2.5c3.3,0,3.3-5,0-5C100.4,41.2,99.4,42.1,99.4,43.6z"/>
		<path fill="#A3A9BC" d="M111.2,40.7l-3.6,8.4H107l1.1-2.5l-2.4-5.9h0.6l1.4,3.5l0.7,1.7l0.7-1.7l1.5-3.5H111.2z"/>
	</g>
	<line fill="none" stroke="#A3A9BC" stroke-miterlimit="10" x1="0" y1="43.4" x2="179.3" y2="43.4"/>
</g>
</svg>
