<?xml version="1.0" encoding="utf-8"?>
<!-- Generator: Adobe Illustrator 21.0.2, SVG Export Plug-In . SVG Version: 6.00 Build 0)  -->
<svg version="1.1" id="Layer_1" xmlns="http://www.w3.org/2000/svg" xmlns:xlink="http://www.w3.org/1999/xlink" x="0px" y="0px"
	 viewBox="0 0 315.2 92.2" style="enable-background:new 0 0 315.2 92.2;" xml:space="preserve">
<style type="text/css">
	.st0{fill:#f7f7f7;}
</style>
<g>
	<path class="st0" d="M16.5,19.2l1.8,0.3h7.9l0.5-0.1c4.5,0,8.2,2.1,11.3,6.2c1.6,2.3,2.4,4.8,2.4,7.5v0.4c0,3.3-1,6.1-3,8.3
		c5.3,2.9,8,7.6,8,14.1c0,6.5-3.4,11.4-10.1,14.9c-2.2,0.8-4.1,1.1-5.8,1.1h-12c-2.3-0.4-3.5-1.6-3.5-3.6V23
		c0.4-2.3,1.2-3.5,2.5-3.5V19.2z M21.3,26.8v12.8h3.8c3.9,0,6.3-1.3,7.4-4c0.3-0.8,0.5-1.5,0.5-2.3v-0.4c0-2.9-1.7-4.9-5.1-6
		l-2.6-0.1H21.3z M21.3,46.8v17.8h5.8c4.7,0,7.8-1.3,9.3-3.9c1-1.5,1.5-3.1,1.5-4.9v-0.2c0-4.2-2.3-7.1-7-8.5l-3.6-0.2H21.3z"/>
	<path class="st0" d="M83.6,68c-3.3,2.6-6.9,3.9-10.9,3.9h-0.9c-5.8,0-10.9-2.8-15.1-8.5c-2-3.1-3-6.8-3-11.3V37.6
		c0.3-2.7,1.6-4,3.8-4c2.3,0.6,3.4,1.7,3.4,3.3V51c0,5.6,1.6,9.4,4.7,11.3c2,1.5,4.2,2.3,6.7,2.3c4.7,0,8.2-2.4,10.6-7.2
		c0.5-1.6,0.7-3.2,0.7-4.7V37.2c0.5-2.4,1.7-3.6,3.8-3.6c2.3,0.5,3.4,1.7,3.4,3.6v31.4c0,1.8-1.1,2.9-3.4,3.3h-0.4
		c-2.3-0.4-3.4-1.6-3.4-3.6V68z"/>
	<path class="st0" d="M112.7,57.3c5.8-14.2,9-21.6,9.5-22.1c0.8-0.7,1.7-1,2.6-1c2.3,0.4,3.4,1.5,3.4,3.4v0.2
		c-0.1,0.7-4.2,10.7-12.2,29.8c-3.8,9.5-6,14.6-6.6,15.4c-0.6,0.4-1.3,0.8-2.3,1.1c-2.4-0.5-3.6-1.6-3.6-3.2v-0.6
		c0-0.4,1.8-5.1,5.4-13.8L97.3,38.1v-0.4c0.4-2.3,1.6-3.4,3.5-3.4s3.4,1.9,4.5,5.6C109.1,48.8,111.6,54.6,112.7,57.3z"/>
	<path class="st0" d="M163.8,52.3l4.8-4.9c0.8-0.6,1.7-0.9,2.4-0.9c2.3,0,3.6,1.3,3.9,3.9c0,1.4-1.7,3.5-5,6.4l-0.7,0.8l6.9,7
		c0.5,0.7,0.8,1.4,0.8,2.1v0.5c-0.5,2.3-1.7,3.5-3.6,3.5h-0.4c-1.3,0-3.2-1.4-5.7-4.3l-3.4-3.4c-4.8,5.2-8.1,7.8-9.8,7.8
		c-1.5,0.6-3.2,0.9-4.9,0.9c-5.6,0-10-2.8-13.2-8.3c-1-2.3-1.4-4.4-1.4-6.5c0-4.9,2.6-9.4,7.8-13.7l0.9-0.9
		c-4.1-3.8-6.1-6.5-6.1-8.1c-0.2,0-0.3-1.1-0.3-3.4c0-4.8,2.6-8.5,7.7-11c1.4-0.4,2.7-0.6,3.7-0.6h0.7c5,0,8.7,2.7,11,8.2
		c0.3,1.3,0.4,2.3,0.4,3.2v0.7c0,3.8-1.9,7.2-5.8,10.3l-0.6,0.6L163.8,52.3z M148.4,47.8c-4.1,3.7-6.2,6.4-6.2,8l-0.1,1.1v0.6
		c0,3,1.7,5.1,5.1,6.4l1.8,0.2c2.7,0,5.3-1.7,7.9-5l1.4-1.4L148.4,47.8z M148.5,37.1c2.8-2.5,4.2-4.4,4.2-5.6v-0.5
		c0-1.8-1.1-3.1-3.2-3.9l-1.2-0.1c-1.7,0-2.9,0.9-3.7,2.8l-0.2,0.8v0.9C144.4,32.9,145.7,34.8,148.5,37.1z"/>
	<path class="st0" d="M199.7,19.2c4.7,0,8.7,2.2,11.8,6.5l0.2,0.9v0.9c0,1.7-1.2,2.8-3.6,3.2c-1.1,0-2.5-1-4.4-3.1
		c-1.3-0.8-2.5-1.2-3.7-1.2h-0.8c-2.5,0-4.5,1.4-5.8,4.1c-0.3,0.6-0.4,1.2-0.4,1.8v1.1c0,2.9,1.8,5,5.3,6.3c3.1,0,6.4,1.5,10.1,4.4
		c3.5,3.6,5.3,7.5,5.3,11.8c0,5.3-2.3,9.6-6.8,12.9c-2.8,1.9-5.8,2.9-9.2,2.9c-5.4,0-10-2.4-13.6-7.2l-0.4-1.5
		c0.4-2.4,1.7-3.6,3.7-3.6c1.3,0,2.7,1,4.3,3.1c1.9,1.3,3.7,2,5.3,2h1.2c3.1,0,5.7-1.8,7.6-5.4c0.3-1.1,0.5-2,0.5-2.6v-1.3
		c0-3.1-1.8-5.7-5.4-7.6l-6.9-1.9c-5.5-3.2-8.3-7.4-8.3-12.5v-0.9c0-5.1,2.7-9.1,8.1-12C196.1,19.6,198,19.2,199.7,19.2z"/>
	<path class="st0" d="M238.8,33.7c7.3,0,13,3.5,17.1,10.4c1.4,2.7,2.1,5.7,2.1,8.9v0.8c-0.4,2.4-1.6,3.6-3.6,3.6h-26.3
		c0.7,2.3,2.6,4.3,5.7,6c1.9,0.7,3.6,1.1,5.2,1.1c1.9,0,4.1-0.7,6.8-2h1.1c2.2,0.4,3.3,1.6,3.3,3.4v0.4c0,2.8-3.5,4.6-10.4,5.5h-1
		c-6.8,0-12.3-3.2-16.5-9.6c-1.7-3-2.5-6.2-2.5-9.5c0-7,3.3-12.5,9.9-16.7C232.9,34.5,236,33.7,238.8,33.7z M227.5,50.2h23
		c0-0.9-1-2.6-2.9-5.2c-2.6-2.5-5.2-3.7-7.7-3.7h-1.4c-3.8,0-7,1.9-9.5,5.7C228.1,48.4,227.6,49.5,227.5,50.2z"/>
	<path class="st0" d="M269,19.6h0.6c2.2,0.5,3.3,1.5,3.3,3.2v41.8h1.7c1.7,0,2.8,1.2,3.3,3.5v0.3c-0.4,2.3-1.6,3.5-3.6,3.5h-5.1
		c-1.9,0-3.1-1.2-3.6-3.6V23.4C266,20.9,267.1,19.6,269,19.6z"/>
	<path class="st0" d="M289,19.6h0.6c2.2,0.5,3.3,1.5,3.3,3.2v41.8h1.7c1.7,0,2.8,1.2,3.3,3.5v0.3c-0.4,2.3-1.6,3.5-3.6,3.5h-5.1
		c-1.9,0-3.1-1.2-3.6-3.6V23.4C286,20.9,287.1,19.6,289,19.6z"/>
</g>
<g>
</g>
<g>
</g>
<g>
</g>
<g>
</g>
<g>
</g>
<g>
</g>
</svg>
