<?xml version="1.0" encoding="utf-8"?>
<!-- Generator: Adobe Illustrator 18.0.0, SVG Export Plug-In . SVG Version: 6.00 Build 0)  -->
<!DOCTYPE svg PUBLIC "-//W3C//DTD SVG 1.1//EN" "http://www.w3.org/Graphics/SVG/1.1/DTD/svg11.dtd">
<svg version="1.1" id="Layer_1" xmlns="http://www.w3.org/2000/svg" xmlns:xlink="http://www.w3.org/1999/xlink" x="0px" y="0px"
	 viewBox="0 0 124.8 176.4" enable-background="new 0 0 124.8 176.4" xml:space="preserve">
<path fill="#35be9c" d="M101.8,133.4l-12.6-23.7l-2.4-4.5l-2.2-4.2c11.9-7.7,20.7-19.9,23.9-34.3c0.8-3.8,1.3-7.8,1.3-11.8
	c0-4.1-0.4-8-1.3-11.8C103,18.4,81.1,0,54.9,0H0v24.4l4.3,12.1h1.1h36.9h9.8c5.7,0,10.3,8.2,10.3,18.3c0,9.4-4,17.1-9.1,18.2
	c-0.4,0.1-0.8,0.1-1.2,0.1H19.6H5.4c2.8,22.8,8.3,20.7,20.7,28.4l4.3,8.1h10l12.6,23.7H43l22.9,43h10h38.7h10L101.8,133.4z"/>
</svg>
