<?xml version="1.0" encoding="utf-8"?>
<!-- Generator: Adobe Illustrator 21.0.2, SVG Export Plug-In . SVG Version: 6.00 Build 0)  -->
<svg version="1.1" id="Layer_1" xmlns="http://www.w3.org/2000/svg" xmlns:xlink="http://www.w3.org/1999/xlink" x="0px" y="0px"
	 viewBox="0 0 239.7 117.6" style="enable-background:new 0 0 239.7 117.6;" xml:space="preserve">
<style type="text/css">
	.st0{fill:#FFFFFF;}
	.st1{fill:#D5D6E0;}
</style>
<g>
	<path class="st0" d="M5.1,5.1h14.1v76.8h23.2v12.8H5.1V5.1z"/>
	<path class="st0" d="M59.3,26.6c0-7.3,1.7-12.8,5.2-16.7C68,6,73.2,4.1,80.1,4.1S92.2,6,95.6,9.9c3.5,3.9,5.2,9.5,5.2,16.7v2.8
		H87.5v-3.7c0-3.2-0.6-5.5-1.9-6.8c-1.2-1.3-3-2-5.2-2c-2.2,0-3.9,0.7-5.2,2c-1.2,1.3-1.9,3.6-1.9,6.8c0,3.1,0.7,5.8,2,8.1
		c1.4,2.3,3.1,4.6,5.1,6.7c2,2.1,4.2,4.2,6.6,6.3c2.3,2.1,4.5,4.4,6.6,6.8c2,2.5,3.8,5.3,5.1,8.4c1.4,3.2,2,6.9,2,11.1
		c0,7.3-1.8,12.8-5.3,16.7c-3.5,3.9-8.8,5.8-15.7,5.8s-12.1-1.9-15.7-5.8C60.7,86,59,80.5,59,73.2v-5.5h13.3v6.4
		c0,3.2,0.7,5.5,2,6.8c1.3,1.3,3.1,1.9,5.3,1.9c2.2,0,4-0.6,5.3-1.9c1.3-1.3,2-3.5,2-6.8c0-3.1-0.7-5.8-2-8.1
		c-1.4-2.3-3.1-4.6-5.1-6.7c-2-2.1-4.2-4.2-6.6-6.3c-2.3-2.1-4.5-4.4-6.6-6.8c-2-2.5-3.8-5.3-5.1-8.4C60,34.6,59.3,30.9,59.3,26.6z"
		/>
	<path class="st0" d="M140.4,5.1c7.1,0,12.4,1.9,15.8,5.6c3.5,3.8,5.2,9.3,5.2,16.5v11.6c0,7.3-1.7,12.8-5.2,16.5
		c-3.5,3.8-8.7,5.6-15.8,5.6h-6.7v33.7h-14.1V5.1H140.4z M133.7,17.9v30.3h6.7c2.2,0,3.9-0.6,5.1-1.8c1.2-1.2,1.8-3.4,1.8-6.7V26.4
		c0-3.2-0.6-5.5-1.8-6.7c-1.2-1.2-2.9-1.8-5.1-1.8H133.7z"/>
	<path class="st0" d="M179.8,5.1H202c7.1,0,12.4,1.9,15.8,5.6c3.5,3.8,5.2,9.3,5.2,16.5v45.3c0,7.3-1.7,12.8-5.2,16.5
		c-3.5,3.8-8.7,5.6-15.8,5.6h-22.3V5.1z M193.8,17.9v64h7.9c2.2,0,4-0.6,5.2-1.9c1.3-1.3,1.9-3.5,1.9-6.8V26.6
		c0-3.2-0.6-5.5-1.9-6.8c-1.3-1.3-3-1.9-5.2-1.9H193.8z"/>
</g>
<g>
	<path class="st1" d="M77.8,102.5l-0.4,1.2h0.2l-0.2,1.1h-0.6l0.2-1.1l0.5-1.2H77.8z M79,102.5l-0.4,1.2h0.2l-0.2,1.1h-0.6l0.2-1.1
		l0.5-1.2H79z"/>
	<path class="st1" d="M79.6,111.3l0.2-1h0.5l-0.2,1H79.6z"/>
	<path class="st1" d="M82.1,111.3l0.2-1h0.5l-0.2,1H82.1z"/>
	<path class="st1" d="M84.6,111.3l0.2-1h0.5l-0.2,1H84.6z"/>
	<path class="st1" d="M88.6,111.4c-0.3,0-0.5-0.1-0.7-0.2c-0.2-0.1-0.3-0.4-0.3-0.6c0,0,0-0.1,0-0.1c0,0,0-0.1,0-0.1l1-4.7h-0.8
		L88,105h0.8l0.4-2.1h0.6l-0.4,2.1h1.4l-0.1,0.5h-1.4l-0.9,4.2c-0.1,0.3-0.1,0.4-0.1,0.5c0,0.2,0.1,0.3,0.2,0.4
		c0.1,0.1,0.3,0.1,0.4,0.1c0.1,0,0.2,0,0.3,0c0.1,0,0.2-0.1,0.3-0.1s0.2-0.1,0.2-0.1s0.1,0,0.1-0.1L90,111c0,0-0.1,0.1-0.2,0.1
		s-0.2,0.1-0.3,0.1s-0.3,0.1-0.4,0.1C89,111.3,88.8,111.4,88.6,111.4z"/>
	<path class="st1" d="M93.6,111.4c-0.4,0-0.7-0.1-1-0.2s-0.5-0.3-0.7-0.6c-0.2-0.2-0.3-0.5-0.5-0.8c-0.1-0.3-0.2-0.7-0.2-1
		c0-0.5,0.1-1,0.3-1.5c0.2-0.5,0.5-0.9,0.8-1.2c0.3-0.4,0.7-0.6,1.2-0.9c0.4-0.2,0.9-0.3,1.4-0.3c0.4,0,0.7,0.1,1,0.2
		c0.3,0.1,0.5,0.3,0.7,0.6c0.2,0.2,0.3,0.5,0.5,0.8c0.1,0.3,0.2,0.7,0.2,1c0,0.5-0.1,1-0.3,1.4s-0.5,0.9-0.8,1.2
		c-0.3,0.4-0.7,0.6-1.2,0.9C94.6,111.3,94.1,111.4,93.6,111.4z M93.8,110.9c0.4,0,0.7-0.1,1.1-0.3c0.4-0.2,0.7-0.4,0.9-0.7
		c0.3-0.3,0.5-0.6,0.7-1s0.3-0.8,0.3-1.2c0-0.3,0-0.6-0.1-0.9c-0.1-0.3-0.2-0.5-0.4-0.7c-0.2-0.2-0.3-0.4-0.6-0.5
		c-0.2-0.1-0.5-0.2-0.7-0.2c-0.4,0-0.7,0.1-1.1,0.3c-0.3,0.2-0.7,0.4-0.9,0.7c-0.3,0.3-0.5,0.6-0.7,1s-0.3,0.8-0.3,1.2
		c0,0.3,0,0.6,0.1,0.8s0.2,0.5,0.4,0.7c0.2,0.2,0.3,0.3,0.6,0.5C93.2,110.8,93.5,110.9,93.8,110.9z"/>
	<path class="st1" d="M103.5,105h0.5l-0.3,1.2c0.3-0.4,0.7-0.7,1.2-1s0.9-0.4,1.4-0.4c0.4,0,0.7,0.1,0.9,0.2
		c0.3,0.1,0.5,0.3,0.7,0.6c0.2,0.2,0.3,0.5,0.4,0.8c0.1,0.3,0.1,0.7,0.1,1c0,0.5-0.1,1-0.3,1.4c-0.2,0.5-0.4,0.9-0.8,1.2
		c-0.3,0.4-0.7,0.6-1.1,0.9s-0.9,0.3-1.3,0.3c-0.5,0-0.9-0.1-1.3-0.4s-0.6-0.6-0.7-1l-0.8,3.9h-0.6L103.5,105z M105.1,110.9
		c0.4,0,0.8-0.1,1.1-0.3s0.7-0.4,0.9-0.7c0.3-0.3,0.5-0.6,0.6-1c0.2-0.4,0.2-0.8,0.2-1.1c0-0.3,0-0.6-0.1-0.8s-0.2-0.5-0.4-0.7
		s-0.4-0.4-0.6-0.5c-0.2-0.1-0.5-0.2-0.8-0.2c-0.2,0-0.4,0-0.7,0.1s-0.5,0.2-0.7,0.4c-0.2,0.2-0.4,0.3-0.6,0.5
		c-0.2,0.2-0.3,0.4-0.4,0.6l-0.4,2.1c0,0.2,0.1,0.4,0.2,0.6s0.2,0.4,0.4,0.5c0.2,0.2,0.3,0.3,0.5,0.4
		C104.6,110.8,104.8,110.9,105.1,110.9z"/>
	<path class="st1" d="M111.2,105h0.6l-0.3,1.5c0.3-0.5,0.7-0.9,1.2-1.1c0.4-0.3,0.9-0.4,1.3-0.4c0.1,0,0.1,0,0.2,0l-0.1,0.5
		c-0.5,0-1,0.2-1.5,0.5c-0.5,0.3-0.8,0.8-1.1,1.3l-0.8,3.9h-0.6L111.2,105z"/>
	<path class="st1" d="M116.5,111.4c-0.4,0-0.7-0.1-1-0.2s-0.5-0.3-0.7-0.6c-0.2-0.2-0.3-0.5-0.5-0.8c-0.1-0.3-0.2-0.7-0.2-1
		c0-0.5,0.1-1,0.3-1.5c0.2-0.5,0.5-0.9,0.8-1.2c0.3-0.4,0.7-0.6,1.2-0.9c0.4-0.2,0.9-0.3,1.4-0.3c0.4,0,0.7,0.1,1,0.2
		c0.3,0.1,0.5,0.3,0.7,0.6c0.2,0.2,0.3,0.5,0.5,0.8c0.1,0.3,0.2,0.7,0.2,1c0,0.5-0.1,1-0.3,1.4s-0.5,0.9-0.8,1.2
		c-0.3,0.4-0.7,0.6-1.2,0.9C117.5,111.3,117,111.4,116.5,111.4z M116.6,110.9c0.4,0,0.7-0.1,1.1-0.3c0.4-0.2,0.7-0.4,0.9-0.7
		c0.3-0.3,0.5-0.6,0.7-1s0.3-0.8,0.3-1.2c0-0.3,0-0.6-0.1-0.9c-0.1-0.3-0.2-0.5-0.4-0.7c-0.2-0.2-0.3-0.4-0.6-0.5
		c-0.2-0.1-0.5-0.2-0.7-0.2c-0.4,0-0.7,0.1-1.1,0.3c-0.3,0.2-0.7,0.4-0.9,0.7s-0.5,0.6-0.7,1s-0.3,0.8-0.3,1.2c0,0.3,0,0.6,0.1,0.8
		s0.2,0.5,0.4,0.7c0.2,0.2,0.3,0.3,0.6,0.5S116.4,110.9,116.6,110.9z"/>
	<path class="st1" d="M122.8,111.4c-0.3,0-0.5-0.1-0.7-0.2c-0.2-0.1-0.3-0.4-0.3-0.6c0,0,0-0.1,0-0.1s0-0.1,0-0.1l1-4.7H122l0.1-0.5
		h0.8l0.4-2.1h0.6l-0.4,2.1h1.4l-0.1,0.5h-1.4l-0.9,4.2c-0.1,0.3-0.1,0.4-0.1,0.5c0,0.2,0.1,0.3,0.2,0.4c0.1,0.1,0.3,0.1,0.4,0.1
		c0.1,0,0.2,0,0.3,0c0.1,0,0.2-0.1,0.3-0.1s0.2-0.1,0.2-0.1c0.1,0,0.1,0,0.1-0.1l0.1,0.5c0,0-0.1,0.1-0.2,0.1s-0.2,0.1-0.3,0.1
		s-0.3,0.1-0.4,0.1C123.1,111.3,122.9,111.4,122.8,111.4z"/>
	<path class="st1" d="M127.8,111.4c-0.4,0-0.7-0.1-1-0.2s-0.5-0.3-0.7-0.6s-0.4-0.5-0.5-0.8c-0.1-0.3-0.2-0.7-0.2-1
		c0-0.5,0.1-1,0.3-1.4c0.2-0.5,0.5-0.9,0.8-1.2c0.3-0.4,0.7-0.6,1.2-0.9c0.5-0.2,0.9-0.3,1.5-0.3c0.2,0,0.5,0,0.7,0.1
		c0.2,0.1,0.4,0.2,0.6,0.3s0.3,0.3,0.4,0.5c0.1,0.2,0.2,0.4,0.2,0.7c0,1.2-1.1,1.8-3.3,1.8c-0.3,0-0.5,0-0.8,0c-0.3,0-0.6,0-0.9,0
		c0,0.1,0,0.1,0,0.2c0,0.1,0,0.1,0,0.2c0,0.3,0,0.6,0.1,0.8c0.1,0.3,0.2,0.5,0.3,0.7c0.2,0.2,0.4,0.4,0.6,0.5
		c0.2,0.1,0.5,0.2,0.8,0.2c0.2,0,0.4,0,0.6-0.1c0.2-0.1,0.4-0.1,0.6-0.3c0.2-0.1,0.4-0.2,0.5-0.4c0.2-0.2,0.3-0.3,0.4-0.5l0.5,0.2
		c-0.1,0.2-0.3,0.5-0.5,0.6c-0.2,0.2-0.4,0.4-0.7,0.5c-0.2,0.1-0.5,0.2-0.8,0.3C128.4,111.4,128.1,111.4,127.8,111.4z M129.1,105.4
		c-0.4,0-0.7,0.1-1,0.2c-0.3,0.1-0.6,0.3-0.8,0.6c-0.2,0.2-0.5,0.5-0.6,0.8c-0.2,0.3-0.3,0.6-0.4,0.9c0.3,0,0.6,0,0.9,0
		c0.3,0,0.5,0,0.8,0c0.5,0,0.9,0,1.3-0.1c0.3-0.1,0.6-0.2,0.8-0.3c0.2-0.1,0.4-0.3,0.4-0.4c0.1-0.2,0.1-0.3,0.1-0.5
		c0-0.2,0-0.4-0.1-0.5s-0.2-0.3-0.3-0.4s-0.3-0.2-0.5-0.2C129.5,105.4,129.3,105.4,129.1,105.4z"/>
	<path class="st1" d="M134.7,111.4c-0.4,0-0.7-0.1-1-0.2s-0.5-0.3-0.7-0.6c-0.2-0.2-0.4-0.5-0.5-0.8c-0.1-0.3-0.2-0.7-0.2-1
		c0-0.5,0.1-1,0.3-1.5c0.2-0.5,0.5-0.9,0.8-1.2c0.3-0.4,0.7-0.6,1.2-0.8c0.4-0.2,0.9-0.3,1.4-0.3c0.5,0,1,0.1,1.4,0.4
		c0.4,0.3,0.6,0.6,0.7,1.1l-0.6,0.2c-0.1-0.3-0.3-0.6-0.6-0.8c-0.3-0.2-0.6-0.3-1-0.3c-0.4,0-0.7,0.1-1.1,0.3
		c-0.4,0.2-0.7,0.4-0.9,0.7c-0.3,0.3-0.5,0.6-0.7,1s-0.3,0.8-0.3,1.2c0,0.3,0,0.6,0.1,0.9c0.1,0.3,0.2,0.5,0.4,0.7s0.3,0.3,0.6,0.5
		c0.2,0.1,0.5,0.2,0.7,0.2c0.2,0,0.4,0,0.6-0.1c0.2-0.1,0.4-0.1,0.6-0.3c0.2-0.1,0.4-0.2,0.5-0.4c0.1-0.1,0.3-0.3,0.3-0.4l0.6,0.2
		c-0.1,0.2-0.3,0.4-0.5,0.6c-0.2,0.2-0.4,0.3-0.7,0.5c-0.2,0.1-0.5,0.2-0.8,0.3C135.3,111.4,135,111.4,134.7,111.4z"/>
	<path class="st1" d="M140.3,111.4c-0.3,0-0.5-0.1-0.7-0.2c-0.2-0.1-0.3-0.4-0.3-0.6c0,0,0-0.1,0-0.1c0,0,0-0.1,0-0.1l1-4.7h-0.8
		l0.1-0.5h0.8l0.4-2.1h0.6l-0.4,2.1h1.4l-0.1,0.5H141l-0.9,4.2c-0.1,0.3-0.1,0.4-0.1,0.5c0,0.2,0.1,0.3,0.2,0.4s0.3,0.1,0.4,0.1
		c0.1,0,0.2,0,0.3,0c0.1,0,0.2-0.1,0.3-0.1s0.2-0.1,0.2-0.1c0.1,0,0.1,0,0.1-0.1l0.1,0.5c0,0-0.1,0.1-0.2,0.1s-0.2,0.1-0.3,0.1
		s-0.3,0.1-0.4,0.1C140.6,111.3,140.5,111.4,140.3,111.4z"/>
	<path class="st1" d="M149.2,111.4c-0.3,0-0.7-0.1-0.9-0.2c-0.3-0.1-0.5-0.3-0.7-0.6c-0.2-0.2-0.3-0.5-0.4-0.8
		c-0.1-0.3-0.2-0.7-0.2-1c0-0.5,0.1-1,0.3-1.4s0.5-0.9,0.8-1.2c0.3-0.4,0.7-0.6,1.1-0.9c0.4-0.2,0.9-0.3,1.3-0.3
		c0.3,0,0.5,0,0.7,0.1s0.4,0.2,0.6,0.3s0.3,0.3,0.4,0.5c0.1,0.2,0.2,0.4,0.3,0.6l0.3-1.4h0.6l-1.2,5.4c0,0.1,0,0.1,0,0.1
		c0,0.1,0.1,0.2,0.2,0.2l-0.1,0.5c0,0-0.1,0-0.1,0c0,0-0.1,0-0.1,0c-0.2,0-0.3,0-0.4-0.1s-0.1-0.2-0.1-0.3c0,0,0-0.1,0-0.1
		s0-0.1,0-0.1c0-0.1,0-0.1,0-0.2c0-0.1,0-0.2,0.1-0.4c-0.3,0.4-0.7,0.7-1.2,1S149.6,111.4,149.2,111.4z M149.4,110.9
		c0.2,0,0.5,0,0.7-0.1c0.3-0.1,0.5-0.2,0.7-0.4s0.4-0.3,0.6-0.5c0.2-0.2,0.3-0.4,0.4-0.6l0.4-2.1c0-0.2-0.1-0.4-0.2-0.6
		c-0.1-0.2-0.2-0.4-0.4-0.5c-0.2-0.2-0.3-0.3-0.6-0.4s-0.4-0.1-0.7-0.1c-0.4,0-0.7,0.1-1.1,0.3c-0.3,0.2-0.6,0.4-0.9,0.8
		c-0.3,0.3-0.5,0.7-0.6,1c-0.2,0.4-0.2,0.8-0.2,1.2c0,0.3,0,0.6,0.1,0.8s0.2,0.5,0.4,0.7c0.2,0.2,0.4,0.4,0.6,0.5
		C148.9,110.8,149.1,110.9,149.4,110.9z"/>
	<path class="st1" d="M155.8,105h0.6l-0.3,1.5c0.2-0.2,0.4-0.5,0.6-0.7c0.2-0.2,0.5-0.4,0.7-0.5c0.3-0.1,0.5-0.2,0.8-0.3
		c0.3-0.1,0.5-0.1,0.8-0.1c0.5,0,0.8,0.1,1,0.4s0.3,0.6,0.3,1.1c0,0.2,0,0.4,0,0.6c0,0.2-0.1,0.4-0.1,0.7l-0.8,3.6h-0.6l0.7-3.5
		c0-0.2,0.1-0.4,0.1-0.6c0-0.2,0-0.4,0-0.5c0-0.8-0.3-1.2-1-1.2c-0.2,0-0.5,0-0.8,0.1c-0.3,0.1-0.5,0.2-0.8,0.4s-0.5,0.4-0.7,0.6
		s-0.4,0.5-0.5,0.8l-0.8,3.9h-0.6L155.8,105z"/>
	<path class="st1" d="M164.1,111.4c-0.4,0-0.7-0.1-0.9-0.2c-0.3-0.1-0.5-0.3-0.7-0.6c-0.2-0.2-0.3-0.5-0.4-0.8
		c-0.1-0.3-0.2-0.7-0.2-1c0-0.5,0.1-1,0.3-1.4s0.5-0.9,0.8-1.2c0.3-0.4,0.7-0.6,1.1-0.9c0.4-0.2,0.9-0.3,1.3-0.3
		c0.3,0,0.5,0,0.7,0.1s0.4,0.2,0.6,0.3s0.3,0.3,0.4,0.5c0.1,0.2,0.2,0.4,0.3,0.6l0.8-3.9h0.6l-1.7,7.9c0,0.1,0,0.1,0,0.1
		c0,0.1,0.1,0.2,0.2,0.2l-0.1,0.5c-0.1,0-0.1,0-0.1,0c0,0-0.1,0-0.1,0c-0.3,0-0.4-0.2-0.4-0.4c0,0,0,0,0-0.1s0-0.1,0-0.1
		c0-0.1,0-0.1,0-0.2c0-0.1,0-0.2,0.1-0.4c-0.3,0.4-0.7,0.7-1.2,1S164.5,111.4,164.1,111.4z M164.3,110.9c0.2,0,0.4,0,0.7-0.1
		s0.5-0.2,0.7-0.4s0.4-0.3,0.6-0.5c0.2-0.2,0.3-0.4,0.4-0.6l0.4-2.1c0-0.2-0.1-0.4-0.2-0.6c-0.1-0.2-0.3-0.4-0.4-0.5
		c-0.2-0.1-0.3-0.3-0.6-0.4c-0.2-0.1-0.4-0.1-0.6-0.1c-0.4,0-0.8,0.1-1.1,0.3c-0.4,0.2-0.7,0.4-0.9,0.8c-0.3,0.3-0.5,0.7-0.6,1
		c-0.2,0.4-0.2,0.8-0.2,1.1c0,0.3,0,0.6,0.1,0.8c0.1,0.3,0.2,0.5,0.4,0.7c0.2,0.2,0.4,0.4,0.6,0.5
		C163.8,110.8,164,110.9,164.3,110.9z"/>
	<path class="st1" d="M174.4,111.4c-0.3,0-0.5-0.1-0.7-0.2c-0.2-0.1-0.3-0.4-0.3-0.6c0,0,0-0.1,0-0.1c0,0,0-0.1,0-0.1l1-4.7h-0.8
		l0.1-0.5h0.8l0.4-2.1h0.6l-0.4,2.1h1.4l-0.1,0.5H175l-0.9,4.2c-0.1,0.3-0.1,0.4-0.1,0.5c0,0.2,0.1,0.3,0.2,0.4s0.3,0.1,0.4,0.1
		c0.1,0,0.2,0,0.3,0c0.1,0,0.2-0.1,0.3-0.1s0.2-0.1,0.2-0.1c0.1,0,0.1,0,0.1-0.1l0.1,0.5c0,0-0.1,0.1-0.2,0.1s-0.2,0.1-0.3,0.1
		s-0.3,0.1-0.4,0.1C174.7,111.3,174.5,111.4,174.4,111.4z"/>
	<path class="st1" d="M179.4,111.4c-0.4,0-0.7-0.1-1-0.2s-0.5-0.3-0.7-0.6c-0.2-0.2-0.3-0.5-0.5-0.8c-0.1-0.3-0.2-0.7-0.2-1
		c0-0.5,0.1-1,0.3-1.5c0.2-0.5,0.5-0.9,0.8-1.2c0.3-0.4,0.7-0.6,1.2-0.9c0.4-0.2,0.9-0.3,1.4-0.3c0.4,0,0.7,0.1,1,0.2
		c0.3,0.1,0.5,0.3,0.7,0.6c0.2,0.2,0.3,0.5,0.5,0.8c0.1,0.3,0.2,0.7,0.2,1c0,0.5-0.1,1-0.3,1.4s-0.5,0.9-0.8,1.2
		c-0.3,0.4-0.7,0.6-1.2,0.9C180.3,111.3,179.8,111.4,179.4,111.4z M179.5,110.9c0.4,0,0.7-0.1,1.1-0.3c0.4-0.2,0.7-0.4,0.9-0.7
		c0.3-0.3,0.5-0.6,0.7-1s0.3-0.8,0.3-1.2c0-0.3,0-0.6-0.1-0.9c-0.1-0.3-0.2-0.5-0.4-0.7c-0.2-0.2-0.3-0.4-0.6-0.5
		c-0.2-0.1-0.5-0.2-0.7-0.2c-0.4,0-0.7,0.1-1.1,0.3c-0.3,0.2-0.7,0.4-0.9,0.7s-0.5,0.6-0.7,1s-0.3,0.8-0.3,1.2c0,0.3,0,0.6,0.1,0.8
		s0.2,0.5,0.4,0.7c0.2,0.2,0.3,0.3,0.6,0.5S179.2,110.9,179.5,110.9z"/>
	<path class="st1" d="M189.8,111.4c-0.5,0-0.9-0.1-1.3-0.2c-0.4-0.2-0.7-0.4-0.9-0.7l0.4-0.4c0.3,0.3,0.5,0.5,0.9,0.7
		c0.3,0.1,0.7,0.2,1.1,0.2c0.3,0,0.6,0,0.8-0.1c0.2-0.1,0.5-0.2,0.6-0.3c0.2-0.1,0.3-0.3,0.4-0.5c0.1-0.2,0.1-0.4,0.1-0.6
		c0-0.3-0.1-0.5-0.4-0.7c-0.3-0.1-0.7-0.3-1.2-0.4c-0.3-0.1-0.5-0.1-0.7-0.2s-0.4-0.2-0.5-0.2c-0.1-0.1-0.2-0.2-0.3-0.3
		c-0.1-0.1-0.1-0.3-0.1-0.5c0-0.3,0.1-0.7,0.2-0.9c0.1-0.3,0.3-0.5,0.6-0.7c0.2-0.2,0.5-0.3,0.8-0.4s0.6-0.1,1-0.1
		c0.5,0,0.9,0.1,1.2,0.2s0.6,0.4,0.7,0.6l-0.4,0.3c-0.1-0.2-0.3-0.4-0.6-0.5c-0.3-0.1-0.6-0.2-1-0.2c-0.2,0-0.5,0-0.7,0.1
		c-0.2,0.1-0.4,0.2-0.6,0.3s-0.3,0.3-0.4,0.5c-0.1,0.2-0.2,0.4-0.2,0.7c0,0.1,0,0.3,0.1,0.3c0.1,0.1,0.1,0.2,0.2,0.2
		c0.1,0.1,0.2,0.1,0.4,0.2c0.2,0.1,0.4,0.1,0.6,0.2c0.3,0.1,0.6,0.2,0.8,0.2s0.5,0.2,0.6,0.3c0.2,0.1,0.3,0.2,0.4,0.4
		c0.1,0.1,0.1,0.3,0.1,0.5c0,0.3-0.1,0.6-0.2,0.9c-0.1,0.3-0.3,0.5-0.6,0.7c-0.2,0.2-0.5,0.3-0.9,0.4
		C190.5,111.3,190.2,111.4,189.8,111.4z"/>
	<path class="st1" d="M196.4,111.4c-0.4,0-0.7-0.1-1-0.2s-0.5-0.3-0.7-0.6s-0.4-0.5-0.5-0.8c-0.1-0.3-0.2-0.7-0.2-1
		c0-0.5,0.1-1,0.3-1.4c0.2-0.5,0.5-0.9,0.8-1.2c0.3-0.4,0.7-0.6,1.2-0.9c0.5-0.2,0.9-0.3,1.5-0.3c0.2,0,0.5,0,0.7,0.1
		c0.2,0.1,0.4,0.2,0.6,0.3s0.3,0.3,0.4,0.5c0.1,0.2,0.2,0.4,0.2,0.7c0,1.2-1.1,1.8-3.3,1.8c-0.3,0-0.5,0-0.8,0c-0.3,0-0.6,0-0.9,0
		c0,0.1,0,0.1,0,0.2c0,0.1,0,0.1,0,0.2c0,0.3,0,0.6,0.1,0.8c0.1,0.3,0.2,0.5,0.3,0.7c0.2,0.2,0.4,0.4,0.6,0.5
		c0.2,0.1,0.5,0.2,0.8,0.2c0.2,0,0.4,0,0.6-0.1c0.2-0.1,0.4-0.1,0.6-0.3c0.2-0.1,0.4-0.2,0.5-0.4c0.2-0.2,0.3-0.3,0.4-0.5l0.5,0.2
		c-0.1,0.2-0.3,0.5-0.5,0.6c-0.2,0.2-0.4,0.4-0.7,0.5c-0.2,0.1-0.5,0.2-0.8,0.3C197,111.4,196.7,111.4,196.4,111.4z M197.7,105.4
		c-0.4,0-0.7,0.1-1,0.2c-0.3,0.1-0.6,0.3-0.8,0.6c-0.2,0.2-0.5,0.5-0.6,0.8c-0.2,0.3-0.3,0.6-0.4,0.9c0.3,0,0.6,0,0.9,0
		c0.3,0,0.5,0,0.8,0c0.5,0,0.9,0,1.3-0.1c0.3-0.1,0.6-0.2,0.8-0.3c0.2-0.1,0.4-0.3,0.4-0.4c0.1-0.2,0.1-0.3,0.1-0.5
		c0-0.2,0-0.4-0.1-0.5s-0.2-0.3-0.3-0.4s-0.3-0.2-0.5-0.2C198.1,105.4,197.9,105.4,197.7,105.4z"/>
	<path class="st1" d="M202.2,105h0.6l-0.3,1.5c0.3-0.5,0.7-0.9,1.2-1.1c0.4-0.3,0.9-0.4,1.3-0.4c0.1,0,0.1,0,0.2,0l-0.1,0.5
		c-0.5,0-1,0.2-1.5,0.5c-0.5,0.3-0.8,0.8-1.1,1.3l-0.8,3.9h-0.6L202.2,105z"/>
	<path class="st1" d="M206.2,105h0.6l0.8,5.6c0.7-0.9,1.3-1.8,1.9-2.8s0.9-1.9,1.1-2.8h0.6c-0.3,1-0.7,2.1-1.3,3.1s-1.3,2.1-2.1,3.1
		h-0.6L206.2,105z"/>
	<path class="st1" d="M214.3,111.4c-0.4,0-0.7-0.1-1-0.2s-0.5-0.3-0.7-0.6s-0.4-0.5-0.5-0.8c-0.1-0.3-0.2-0.7-0.2-1
		c0-0.5,0.1-1,0.3-1.4c0.2-0.5,0.4-0.9,0.8-1.2c0.3-0.4,0.7-0.6,1.2-0.9c0.5-0.2,0.9-0.3,1.5-0.3c0.2,0,0.5,0,0.7,0.1
		c0.2,0.1,0.4,0.2,0.6,0.3s0.3,0.3,0.4,0.5c0.1,0.2,0.2,0.4,0.2,0.7c0,1.2-1.1,1.8-3.3,1.8c-0.3,0-0.5,0-0.8,0c-0.3,0-0.6,0-0.9,0
		c0,0.1,0,0.1,0,0.2c0,0.1,0,0.1,0,0.2c0,0.3,0,0.6,0.1,0.8c0.1,0.3,0.2,0.5,0.3,0.7c0.2,0.2,0.4,0.4,0.6,0.5
		c0.2,0.1,0.5,0.2,0.8,0.2c0.2,0,0.4,0,0.6-0.1c0.2-0.1,0.4-0.1,0.6-0.3c0.2-0.1,0.4-0.2,0.5-0.4c0.2-0.2,0.3-0.3,0.4-0.5l0.5,0.2
		c-0.1,0.2-0.3,0.5-0.5,0.6c-0.2,0.2-0.4,0.4-0.7,0.5c-0.2,0.1-0.5,0.2-0.8,0.3C214.9,111.4,214.6,111.4,214.3,111.4z M215.6,105.4
		c-0.4,0-0.7,0.1-1,0.2c-0.3,0.1-0.6,0.3-0.8,0.6c-0.2,0.2-0.5,0.5-0.6,0.8s-0.3,0.6-0.4,0.9c0.3,0,0.6,0,0.9,0s0.5,0,0.8,0
		c0.5,0,0.9,0,1.3-0.1c0.3-0.1,0.6-0.2,0.8-0.3s0.4-0.3,0.5-0.4c0.1-0.2,0.1-0.3,0.1-0.5c0-0.2,0-0.4-0.1-0.5s-0.2-0.3-0.3-0.4
		s-0.3-0.2-0.5-0.2S215.8,105.4,215.6,105.4z"/>
	<path class="st1" d="M218.7,111.3l0.2-1h0.5l-0.2,1H218.7z"/>
	<path class="st1" d="M221.9,104.8l0.4-1.2h-0.2l0.2-1.1h0.6l-0.2,1.1l-0.5,1.2H221.9z M223.1,104.8l0.4-1.2h-0.2l0.2-1.1h0.6
		l-0.2,1.1l-0.5,1.2H223.1z"/>
</g>
</svg>
