<?xml version="1.0" encoding="utf-8"?>
<!-- Generator: Adobe Illustrator 21.0.2, SVG Export Plug-In . SVG Version: 6.00 Build 0)  -->
<svg version="1.1" id="Layer_1" xmlns="http://www.w3.org/2000/svg" xmlns:xlink="http://www.w3.org/1999/xlink" x="0px" y="0px"
	 viewBox="0 0 381 88.5" style="enable-background:new 0 0 381 88.5;" xml:space="preserve">
<style type="text/css">
	.st0{fill:#f7f7f7;}
</style>
<g>
	<path class="st0" d="M94.3,68.6c0.5,0.8,0.7,1.8,0.7,3.1c0,2.4-0.6,4.4-1.8,5.8c-3,3.6-6.1,6.5-9.1,8.4c-3.1,2-6.7,3-10.9,3
		c-4.1,0-7.5-1.1-10.4-3.3c-2.9-2.2-5.6-6-8.1-11.3c-2.1-4.3-3.7-7.4-4.9-9.5c-1.2-2-2.4-3.5-3.5-4.4c-1.2-0.9-2.6-1.4-4.3-1.6
		c-0.3,1.3-1,5.5-2.2,12.4c-0.5,3.1-0.8,5.1-0.9,5.7c-0.6,3.8-1.9,6.8-3.8,8.8c-1.9,2-4.7,3.1-8.6,3.1c-4.2,0-7.9-1.2-11.2-3.7
		c-3.2-2.5-5.7-5.9-7.5-10.4c-1.8-4.4-2.6-9.5-2.6-15.1c0-10.5,1.8-19.6,5.5-27.3c3.7-7.7,8.8-13.5,15.4-17.6
		c6.6-4,14.3-6.1,22.9-6.1c6,0,11.1,0.9,15.2,2.7c4.1,1.8,7.1,4.3,9.1,7.5c2,3.2,3,6.8,3,10.8c0,3.5-0.8,7-2.5,10.3
		c-1.7,3.4-4.2,6.3-7.5,8.9c-3.3,2.6-7.4,4.5-12.1,5.7c3,0.8,5.3,2.1,7,4c1.6,1.8,3.3,4.5,4.9,8c1.8,3.8,3.5,6.5,5.2,8.3
		c1.7,1.8,3.7,2.6,6,2.6c2,0,3.9-0.7,5.7-2c1.8-1.3,4.1-3.7,6.9-6.9c0.8-0.9,1.6-1.3,2.5-1.3C93.2,67.5,93.8,67.9,94.3,68.6z
		 M28.9,58.9c-2.1,0-3.6-0.5-4.4-1.5c-0.8-1-1.2-2.1-1.2-3.4c0-1.5,0.5-2.7,1.5-3.6c1-0.9,2.1-1.3,3.3-1.3h2.4
		c1-6.2,1.9-11.5,2.8-15.9c0.8-4.1,3.5-6.1,7.9-6.1c3.6,0,5.4,1.6,5.4,4.8c0,0.7,0,1.2-0.1,1.6l-2.8,15.6c3.4-0.2,6.5-1,9.3-2.4
		c2.8-1.4,5-3.5,6.7-6c1.7-2.6,2.5-5.5,2.5-8.8c0-4-1.4-7.1-4-9.3c-2.7-2.3-6.7-3.4-11.9-3.4c-6.2,0-11.5,1.5-16.1,4.6
		c-4.6,3-8.2,7.6-10.8,13.6c-2.6,6-3.9,13.3-3.9,21.9c0,4,0.4,7.5,1.2,10.4c0.8,2.9,1.8,5.1,3,6.5c1.2,1.4,2.3,2.2,3.4,2.2
		c0.8,0,1.5-0.4,2-1.2c0.5-0.8,1-2.1,1.3-4L28.9,58.9z"/>
	<path class="st0" d="M96.2,64c-0.9-1-1.4-2.4-1.4-4.2c0-1.7,0.4-3,1.3-3.8c0.8-0.8,2.1-1.3,3.7-1.4l19.3-1.9
		c1.6-0.1,2.8,0.3,3.6,1.2s1.3,2.2,1.3,4c0,3.4-1.6,5.2-4.9,5.6l-19.3,1.9C98.3,65.5,97.1,65,96.2,64z"/>
	<path class="st0" d="M139.1,84.5c-5-3.2-7.5-8-7.5-14.5c0-3.5,0.6-6.1,1.8-7.9c1.2-1.8,3-2.7,5.3-2.7c1.7,0,3.1,0.4,4.1,1.3
		c1.1,0.9,1.6,2,1.6,3.4c0,1.3-0.1,2.4-0.3,3.3c0,0.3,0,0.7-0.1,1.3c-0.1,0.6-0.1,1.3-0.1,2c0,2.8,1.4,4.9,4.3,6.3
		c2.9,1.4,6.9,2.1,12,2.1c5.3,0,9.5-1,12.5-2.9c3-1.9,4.5-4.6,4.5-8.1c0-2.1-0.7-4-2.1-5.5c-1.4-1.5-3.1-2.8-5.2-3.9
		c-2.1-1-5-2.3-8.8-3.8c-4.8-1.9-8.8-3.7-11.8-5.4c-3-1.7-5.7-4-7.8-6.9c-2.2-2.9-3.2-6.5-3.2-10.9c0-4.5,1.2-8.5,3.6-12.1
		c2.4-3.5,5.9-6.2,10.5-8.2c4.6-1.9,9.9-2.9,16.1-2.9c4.6,0,8.8,0.7,12.6,2c3.8,1.4,6.9,3.4,9.2,6.2c2.3,2.8,3.4,6.2,3.4,10.2
		c0,4-0.6,6.9-1.8,8.9c-1.2,2-3,3-5.3,3c-1.6,0-3-0.5-4.1-1.5c-1.1-1-1.6-2.2-1.6-3.6c0-1.2,0.1-2.3,0.3-3.3
		c0.2-1.9,0.3-3.1,0.3-3.6c0-2.6-1.3-4.6-3.9-6c-2.6-1.4-5.8-2.1-9.6-2.1c-5.4,0-9.5,1-12.4,3c-2.9,2-4.3,4.8-4.3,8.3
		c0,2.4,0.7,4.4,2.2,6.1c1.5,1.7,3.3,3.1,5.5,4.2c2.2,1.1,5.3,2.5,9.2,4c4.8,1.9,8.6,3.7,11.5,5.3c2.9,1.6,5.4,3.7,7.4,6.4
		c2,2.7,3.1,6,3.1,10c0,7.4-2.8,13.1-8.4,17.1c-5.6,4-13.1,6-22.6,6C150.8,89.3,144.1,87.7,139.1,84.5z"/>
	<path class="st0" d="M248,60.8c0.4,0.8,0.7,1.9,0.7,3.1c0,3-0.9,4.8-2.7,5.4c-3.8,1.3-7.9,2.1-12.4,2.3c-1.2,5.3-3.5,9.5-7.1,12.7
		c-3.5,3.2-7.5,4.8-12,4.8c-3.8,0-7-0.9-9.7-2.7c-2.7-1.8-4.7-4.2-6.1-7.3c-1.4-3-2.1-6.3-2.1-9.8c0-4.8,0.9-9,2.7-12.8
		c1.8-3.7,4.3-6.7,7.5-8.8c3.2-2.1,6.7-3.2,10.6-3.2c4.8,0,8.6,1.6,11.5,4.9c2.9,3.3,4.6,7.4,5.1,12.2c3-0.2,6.5-0.8,10.5-1.9
		c0.5-0.1,0.9-0.2,1.3-0.2C247,59.6,247.6,60,248,60.8z M220.5,76.6c1.5-1.6,2.5-4,3-7.1c-1.9-1.3-3.4-3-4.5-5.2
		c-1-2.1-1.6-4.4-1.6-6.8c0-1,0.1-2,0.3-3h-0.5c-2.5,0-4.6,1.2-6.3,3.6c-1.7,2.4-2.5,5.8-2.5,10.2c0,3.5,0.7,6.1,2,7.9
		c1.3,1.8,2.9,2.7,4.8,2.7C217.3,79,219,78.2,220.5,76.6z"/>
	<path class="st0" d="M244.2,83.8c-3.4-3.5-5.1-8.1-5.1-13.8c0-5.1,1-9.5,3-13.4c2-3.8,4.6-6.8,7.8-8.9c3.2-2.1,6.6-3.1,10.1-3.1
		c3.5,0,6.1,1,8.1,3.1c1.9,2,2.9,4.7,2.9,7.9c0,2.6-0.6,4.9-1.7,6.7c-1.2,1.8-2.7,2.7-4.6,2.7c-1.2,0-2.2-0.3-2.9-0.8
		c-0.7-0.6-1.1-1.3-1.1-2.4c0-0.4,0.1-0.9,0.2-1.5c0.1-0.6,0.2-1,0.3-1.2c0.3-0.9,0.5-1.8,0.5-2.6c0-0.8-0.2-1.4-0.6-1.9
		c-0.4-0.4-1-0.7-1.7-0.7c-1.4,0-2.8,0.6-4,1.9c-1.3,1.3-2.3,3-3,5.2c-0.8,2.2-1.1,4.6-1.1,7.3c0,7.3,3.2,10.9,9.5,10.9
		c2.6,0,5.4-0.9,8.3-2.6c3-1.7,5.9-4.3,8.8-7.8c0.8-0.9,1.6-1.3,2.5-1.3c0.8,0,1.5,0.4,1.9,1.1c0.5,0.8,0.7,1.8,0.7,3.1
		c0,2.4-0.6,4.3-1.8,5.8c-3,3.6-6.5,6.5-10.6,8.4c-4.1,2-8.1,3-11.9,3C252.4,89,247.6,87.2,244.2,83.8z"/>
	<path class="st0" d="M277.9,84.7c-1.9-2.9-2.8-6.7-2.8-11.5c0-2.8,0.4-6.5,1.1-10.9c0.7-4.4,1.6-8.6,2.8-12.4
		c0.6-2,1.3-3.4,2.3-4.1c0.9-0.8,2.4-1.1,4.5-1.1c3.2,0,4.8,1.1,4.8,3.2c0,1.6-0.6,5.2-1.8,10.9c-1.5,6.9-2.3,11.6-2.3,14
		c0,1.9,0.3,3.3,0.8,4.3c0.5,1,1.3,1.5,2.5,1.5c1.1,0,2.5-0.8,4.2-2.4c1.7-1.6,4-4,6.8-7.4c0.8-0.9,1.6-1.3,2.5-1.3
		c0.8,0,1.5,0.4,1.9,1.1c0.5,0.8,0.7,1.8,0.7,3.1c0,2.5-0.6,4.5-1.8,5.8c-6.2,7.6-12,11.4-17.4,11.4C282.8,89,279.8,87.5,277.9,84.7
		z M281.7,36.6c-1.3-1.2-2-2.9-2-5.1c0-2.2,0.9-4,2.6-5.5c1.7-1.5,3.9-2.2,6.5-2.2c2.3,0,4.2,0.6,5.7,1.7c1.4,1.1,2.2,2.7,2.2,4.8
		c0,2.5-0.8,4.5-2.4,6c-1.6,1.5-3.8,2.2-6.5,2.2C285,38.4,283,37.8,281.7,36.6z"/>
	<path class="st0" d="M300.7,84.8c-2.3-2.8-3.5-6.5-3.5-11.1c0-5,1.2-9.8,3.5-14.3c2.3-4.5,5.4-8.1,9.3-10.8c3.9-2.7,8-4.1,12.3-4.1
		c1.4,0,2.3,0.3,2.8,0.8c0.5,0.5,0.9,1.5,1.2,2.9c1.3-0.3,2.7-0.4,4.1-0.4c3.1,0,4.6,1.1,4.6,3.3c0,1.3-0.5,4.5-1.4,9.4
		c-1.4,7.2-2.2,12.2-2.2,15.1c0,0.9,0.2,1.7,0.7,2.3c0.5,0.6,1.1,0.8,1.8,0.8c1.2,0,2.6-0.8,4.3-2.3c1.7-1.5,4-4,6.9-7.5
		c0.8-0.9,1.6-1.3,2.5-1.3c0.8,0,1.5,0.4,1.9,1.1c0.5,0.8,0.7,1.8,0.7,3.1c0,2.5-0.6,4.5-1.8,5.8c-2.6,3.2-5.3,5.9-8.2,8.1
		c-2.9,2.2-5.7,3.3-8.4,3.3c-2.1,0-4-0.7-5.7-2.1c-1.7-1.4-3-3.3-3.9-5.8C319.1,86.4,315,89,310,89C306.1,89,303,87.6,300.7,84.8z
		 M317.3,77c1.3-1.6,2.2-3.8,2.7-6.5l3.5-17.3c-2.6,0.1-5.1,1.1-7.3,3c-2.2,1.9-4,4.4-5.3,7.6c-1.3,3.1-2,6.5-2,10
		c0,1.9,0.4,3.4,1.2,4.3c0.8,0.9,1.9,1.4,3.2,1.4C314.8,79.5,316.1,78.7,317.3,77z"/>
	<path class="st0" d="M380.3,68.6c0.5,0.8,0.7,1.8,0.7,3.1c0,2.5-0.6,4.5-1.8,5.8c-2.7,3.3-5.6,6.1-8.8,8.2
		c-3.2,2.1-6.8,3.2-10.8,3.2c-5.5,0-9.6-2.5-12.3-7.5c-2.7-5-4-11.5-4-19.5c0-7.7,1-16.4,3-26.2s4.9-18.2,8.8-25.2
		c3.9-7,8.5-10.5,13.8-10.5c3,0,5.4,1.4,7.1,4.2c1.7,2.8,2.6,6.8,2.6,12c0,7.5-2.1,16.1-6.2,26c-4.1,9.9-9.8,19.6-16.9,29.3
		c0.4,2.6,1.2,4.4,2.2,5.5c1,1.1,2.3,1.6,4,1.6c2.6,0,4.8-0.7,6.8-2.2c1.9-1.5,4.4-4,7.4-7.6c0.8-0.9,1.6-1.3,2.5-1.3
		C379.2,67.5,379.8,67.9,380.3,68.6z M361.9,17.1c-1.8,5.2-3.4,11.7-4.8,19.4c-1.4,7.7-2.1,15.1-2.3,22.2c4.5-7.3,8-14.7,10.6-22.1
		c2.6-7.4,4-14.1,4-20.2c0-4.8-0.9-7.2-2.6-7.2C365.3,9.3,363.7,11.9,361.9,17.1z"/>
</g>
</svg>
